<?xml version="1.0" encoding="UTF-8"?>
<svg width="147px" height="35px" viewBox="0 0 147 35" version="1.1" xmlns="http://www.w3.org/2000/svg" xmlns:xlink="http://www.w3.org/1999/xlink">
    <!-- Generator: Sketch 59.1 (86144) - https://sketch.com -->
    <title>画板</title>
    <desc>Created with Sketch.</desc>
    <defs>
        <path d="M1,35 C1.55228475,35 2,35.4477153 2,36 C2,36.5522847 1.55228475,37 1,37 C0.44771525,37 0,36.5522847 0,36 C0,35.4477153 0.44771525,35 1,35 Z M8,35 C8.55228475,35 9,35.4477153 9,36 C9,36.5522847 8.55228475,37 8,37 C7.44771525,37 7,36.5522847 7,36 C7,35.4477153 7.44771525,35 8,35 Z M15,35 C15.5522847,35 16,35.4477153 16,36 C16,36.5522847 15.5522847,37 15,37 C14.4477153,37 14,36.5522847 14,36 C14,35.4477153 14.4477153,35 15,35 Z M22,35 C22.5522847,35 23,35.4477153 23,36 C23,36.5522847 22.5522847,37 22,37 C21.4477153,37 21,36.5522847 21,36 C21,35.4477153 21.4477153,35 22,35 Z M29,35 C29.5522847,35 30,35.4477153 30,36 C30,36.5522847 29.5522847,37 29,37 C28.4477153,37 28,36.5522847 28,36 C28,35.4477153 28.4477153,35 29,35 Z M36,35 C36.5522847,35 37,35.4477153 37,36 C37,36.5522847 36.5522847,37 36,37 C35.4477153,37 35,36.5522847 35,36 C35,35.4477153 35.4477153,35 36,35 Z M43,35 C43.5522847,35 44,35.4477153 44,36 C44,36.5522847 43.5522847,37 43,37 C42.4477153,37 42,36.5522847 42,36 C42,35.4477153 42.4477153,35 43,35 Z M50,35 C50.5522847,35 51,35.4477153 51,36 C51,36.5522847 50.5522847,37 50,37 C49.4477153,37 49,36.5522847 49,36 C49,35.4477153 49.4477153,35 50,35 Z M57,35 C57.5522847,35 58,35.4477153 58,36 C58,36.5522847 57.5522847,37 57,37 C56.4477153,37 56,36.5522847 56,36 C56,35.4477153 56.4477153,35 57,35 Z M64,35 C64.5522847,35 65,35.4477153 65,36 C65,36.5522847 64.5522847,37 64,37 C63.4477153,37 63,36.5522847 63,36 C63,35.4477153 63.4477153,35 64,35 Z M71,35 C71.5522847,35 72,35.4477153 72,36 C72,36.5522847 71.5522847,37 71,37 C70.4477153,37 70,36.5522847 70,36 C70,35.4477153 70.4477153,35 71,35 Z M78,35 C78.5522847,35 79,35.4477153 79,36 C79,36.5522847 78.5522847,37 78,37 C77.4477153,37 77,36.5522847 77,36 C77,35.4477153 77.4477153,35 78,35 Z M85,35 C85.5522847,35 86,35.4477153 86,36 C86,36.5522847 85.5522847,37 85,37 C84.4477153,37 84,36.5522847 84,36 C84,35.4477153 84.4477153,35 85,35 Z M92,35 C92.5522847,35 93,35.4477153 93,36 C93,36.5522847 92.5522847,37 92,37 C91.4477153,37 91,36.5522847 91,36 C91,35.4477153 91.4477153,35 92,35 Z M99,35 C99.5522847,35 100,35.4477153 100,36 C100,36.5522847 99.5522847,37 99,37 C98.4477153,37 98,36.5522847 98,36 C98,35.4477153 98.4477153,35 99,35 Z M106,35 C106.552285,35 107,35.4477153 107,36 C107,36.5522847 106.552285,37 106,37 C105.447715,37 105,36.5522847 105,36 C105,35.4477153 105.447715,35 106,35 Z M113,35 C113.552285,35 114,35.4477153 114,36 C114,36.5522847 113.552285,37 113,37 C112.447715,37 112,36.5522847 112,36 C112,35.4477153 112.447715,35 113,35 Z M120,35 C120.552285,35 121,35.4477153 121,36 C121,36.5522847 120.552285,37 120,37 C119.447715,37 119,36.5522847 119,36 C119,35.4477153 119.447715,35 120,35 Z M127,35 C127.552285,35 128,35.4477153 128,36 C128,36.5522847 127.552285,37 127,37 C126.447715,37 126,36.5522847 126,36 C126,35.4477153 126.447715,35 127,35 Z M134,35 C134.552285,35 135,35.4477153 135,36 C135,36.5522847 134.552285,37 134,37 C133.447715,37 133,36.5522847 133,36 C133,35.4477153 133.447715,35 134,35 Z M141,35 C141.552285,35 142,35.4477153 142,36 C142,36.5522847 141.552285,37 141,37 C140.447715,37 140,36.5522847 140,36 C140,35.4477153 140.447715,35 141,35 Z M148,35 C148.552285,35 149,35.4477153 149,36 C149,36.5522847 148.552285,37 148,37 C147.447715,37 147,36.5522847 147,36 C147,35.4477153 147.447715,35 148,35 Z M1,28 C1.55228475,28 2,28.4477153 2,29 C2,29.5522847 1.55228475,30 1,30 C0.44771525,30 0,29.5522847 0,29 C0,28.4477153 0.44771525,28 1,28 Z M8,28 C8.55228475,28 9,28.4477153 9,29 C9,29.5522847 8.55228475,30 8,30 C7.44771525,30 7,29.5522847 7,29 C7,28.4477153 7.44771525,28 8,28 Z M15,28 C15.5522847,28 16,28.4477153 16,29 C16,29.5522847 15.5522847,30 15,30 C14.4477153,30 14,29.5522847 14,29 C14,28.4477153 14.4477153,28 15,28 Z M22,28 C22.5522847,28 23,28.4477153 23,29 C23,29.5522847 22.5522847,30 22,30 C21.4477153,30 21,29.5522847 21,29 C21,28.4477153 21.4477153,28 22,28 Z M29,28 C29.5522847,28 30,28.4477153 30,29 C30,29.5522847 29.5522847,30 29,30 C28.4477153,30 28,29.5522847 28,29 C28,28.4477153 28.4477153,28 29,28 Z M36,28 C36.5522847,28 37,28.4477153 37,29 C37,29.5522847 36.5522847,30 36,30 C35.4477153,30 35,29.5522847 35,29 C35,28.4477153 35.4477153,28 36,28 Z M43,28 C43.5522847,28 44,28.4477153 44,29 C44,29.5522847 43.5522847,30 43,30 C42.4477153,30 42,29.5522847 42,29 C42,28.4477153 42.4477153,28 43,28 Z M50,28 C50.5522847,28 51,28.4477153 51,29 C51,29.5522847 50.5522847,30 50,30 C49.4477153,30 49,29.5522847 49,29 C49,28.4477153 49.4477153,28 50,28 Z M57,28 C57.5522847,28 58,28.4477153 58,29 C58,29.5522847 57.5522847,30 57,30 C56.4477153,30 56,29.5522847 56,29 C56,28.4477153 56.4477153,28 57,28 Z M64,28 C64.5522847,28 65,28.4477153 65,29 C65,29.5522847 64.5522847,30 64,30 C63.4477153,30 63,29.5522847 63,29 C63,28.4477153 63.4477153,28 64,28 Z M71,28 C71.5522847,28 72,28.4477153 72,29 C72,29.5522847 71.5522847,30 71,30 C70.4477153,30 70,29.5522847 70,29 C70,28.4477153 70.4477153,28 71,28 Z M78,28 C78.5522847,28 79,28.4477153 79,29 C79,29.5522847 78.5522847,30 78,30 C77.4477153,30 77,29.5522847 77,29 C77,28.4477153 77.4477153,28 78,28 Z M85,28 C85.5522847,28 86,28.4477153 86,29 C86,29.5522847 85.5522847,30 85,30 C84.4477153,30 84,29.5522847 84,29 C84,28.4477153 84.4477153,28 85,28 Z M92,28 C92.5522847,28 93,28.4477153 93,29 C93,29.5522847 92.5522847,30 92,30 C91.4477153,30 91,29.5522847 91,29 C91,28.4477153 91.4477153,28 92,28 Z M99,28 C99.5522847,28 100,28.4477153 100,29 C100,29.5522847 99.5522847,30 99,30 C98.4477153,30 98,29.5522847 98,29 C98,28.4477153 98.4477153,28 99,28 Z M106,28 C106.552285,28 107,28.4477153 107,29 C107,29.5522847 106.552285,30 106,30 C105.447715,30 105,29.5522847 105,29 C105,28.4477153 105.447715,28 106,28 Z M113,28 C113.552285,28 114,28.4477153 114,29 C114,29.5522847 113.552285,30 113,30 C112.447715,30 112,29.5522847 112,29 C112,28.4477153 112.447715,28 113,28 Z M120,28 C120.552285,28 121,28.4477153 121,29 C121,29.5522847 120.552285,30 120,30 C119.447715,30 119,29.5522847 119,29 C119,28.4477153 119.447715,28 120,28 Z M127,28 C127.552285,28 128,28.4477153 128,29 C128,29.5522847 127.552285,30 127,30 C126.447715,30 126,29.5522847 126,29 C126,28.4477153 126.447715,28 127,28 Z M134,28 C134.552285,28 135,28.4477153 135,29 C135,29.5522847 134.552285,30 134,30 C133.447715,30 133,29.5522847 133,29 C133,28.4477153 133.447715,28 134,28 Z M141,28 C141.552285,28 142,28.4477153 142,29 C142,29.5522847 141.552285,30 141,30 C140.447715,30 140,29.5522847 140,29 C140,28.4477153 140.447715,28 141,28 Z M148,28 C148.552285,28 149,28.4477153 149,29 C149,29.5522847 148.552285,30 148,30 C147.447715,30 147,29.5522847 147,29 C147,28.4477153 147.447715,28 148,28 Z M1,21 C1.55228475,21 2,21.4477153 2,22 C2,22.5522847 1.55228475,23 1,23 C0.44771525,23 0,22.5522847 0,22 C0,21.4477153 0.44771525,21 1,21 Z M15,21 C15.5522847,21 16,21.4477153 16,22 C16,22.5522847 15.5522847,23 15,23 C14.4477153,23 14,22.5522847 14,22 C14,21.4477153 14.4477153,21 15,21 Z M22,21 C22.5522847,21 23,21.4477153 23,22 C23,22.5522847 22.5522847,23 22,23 C21.4477153,23 21,22.5522847 21,22 C21,21.4477153 21.4477153,21 22,21 Z M29,21 C29.5522847,21 30,21.4477153 30,22 C30,22.5522847 29.5522847,23 29,23 C28.4477153,23 28,22.5522847 28,22 C28,21.4477153 28.4477153,21 29,21 Z M36,21 C36.5522847,21 37,21.4477153 37,22 C37,22.5522847 36.5522847,23 36,23 C35.4477153,23 35,22.5522847 35,22 C35,21.4477153 35.4477153,21 36,21 Z M43,21 C43.5522847,21 44,21.4477153 44,22 C44,22.5522847 43.5522847,23 43,23 C42.4477153,23 42,22.5522847 42,22 C42,21.4477153 42.4477153,21 43,21 Z M50,21 C50.5522847,21 51,21.4477153 51,22 C51,22.5522847 50.5522847,23 50,23 C49.4477153,23 49,22.5522847 49,22 C49,21.4477153 49.4477153,21 50,21 Z M57,21 C57.5522847,21 58,21.4477153 58,22 C58,22.5522847 57.5522847,23 57,23 C56.4477153,23 56,22.5522847 56,22 C56,21.4477153 56.4477153,21 57,21 Z M64,21 C64.5522847,21 65,21.4477153 65,22 C65,22.5522847 64.5522847,23 64,23 C63.4477153,23 63,22.5522847 63,22 C63,21.4477153 63.4477153,21 64,21 Z M71,21 C71.5522847,21 72,21.4477153 72,22 C72,22.5522847 71.5522847,23 71,23 C70.4477153,23 70,22.5522847 70,22 C70,21.4477153 70.4477153,21 71,21 Z M78,21 C78.5522847,21 79,21.4477153 79,22 C79,22.5522847 78.5522847,23 78,23 C77.4477153,23 77,22.5522847 77,22 C77,21.4477153 77.4477153,21 78,21 Z M85,21 C85.5522847,21 86,21.4477153 86,22 C86,22.5522847 85.5522847,23 85,23 C84.4477153,23 84,22.5522847 84,22 C84,21.4477153 84.4477153,21 85,21 Z M92,21 C92.5522847,21 93,21.4477153 93,22 C93,22.5522847 92.5522847,23 92,23 C91.4477153,23 91,22.5522847 91,22 C91,21.4477153 91.4477153,21 92,21 Z M99,21 C99.5522847,21 100,21.4477153 100,22 C100,22.5522847 99.5522847,23 99,23 C98.4477153,23 98,22.5522847 98,22 C98,21.4477153 98.4477153,21 99,21 Z M106,21 C106.552285,21 107,21.4477153 107,22 C107,22.5522847 106.552285,23 106,23 C105.447715,23 105,22.5522847 105,22 C105,21.4477153 105.447715,21 106,21 Z M113,21 C113.552285,21 114,21.4477153 114,22 C114,22.5522847 113.552285,23 113,23 C112.447715,23 112,22.5522847 112,22 C112,21.4477153 112.447715,21 113,21 Z M120,21 C120.552285,21 121,21.4477153 121,22 C121,22.5522847 120.552285,23 120,23 C119.447715,23 119,22.5522847 119,22 C119,21.4477153 119.447715,21 120,21 Z M127,21 C127.552285,21 128,21.4477153 128,22 C128,22.5522847 127.552285,23 127,23 C126.447715,23 126,22.5522847 126,22 C126,21.4477153 126.447715,21 127,21 Z M134,21 C134.552285,21 135,21.4477153 135,22 C135,22.5522847 134.552285,23 134,23 C133.447715,23 133,22.5522847 133,22 C133,21.4477153 133.447715,21 134,21 Z M141,21 C141.552285,21 142,21.4477153 142,22 C142,22.5522847 141.552285,23 141,23 C140.447715,23 140,22.5522847 140,22 C140,21.4477153 140.447715,21 141,21 Z M148,21 C148.552285,21 149,21.4477153 149,22 C149,22.5522847 148.552285,23 148,23 C147.447715,23 147,22.5522847 147,22 C147,21.4477153 147.447715,21 148,21 Z M8,21 C8.55228475,21 9,21.4477153 9,22 C9,22.5522847 8.55228475,23 8,23 C7.44771525,23 7,22.5522847 7,22 C7,21.4477153 7.44771525,21 8,21 Z M71,14 C71.5522847,14 72,14.4477153 72,15 C72,15.5522847 71.5522847,16 71,16 C70.4477153,16 70,15.5522847 70,15 C70,14.4477153 70.4477153,14 71,14 Z M64,14 C64.5522847,14 65,14.4477153 65,15 C65,15.5522847 64.5522847,16 64,16 C63.4477153,16 63,15.5522847 63,15 C63,14.4477153 63.4477153,14 64,14 Z M1,14 C1.55228475,14 2,14.4477153 2,15 C2,15.5522847 1.55228475,16 1,16 C0.44771525,16 0,15.5522847 0,15 C0,14.4477153 0.44771525,14 1,14 Z M8,14 C8.55228475,14 9,14.4477153 9,15 C9,15.5522847 8.55228475,16 8,16 C7.44771525,16 7,15.5522847 7,15 C7,14.4477153 7.44771525,14 8,14 Z M29,14 C29.5522847,14 30,14.4477153 30,15 C30,15.5522847 29.5522847,16 29,16 C28.4477153,16 28,15.5522847 28,15 C28,14.4477153 28.4477153,14 29,14 Z M78,14 C78.5522847,14 79,14.4477153 79,15 C79,15.5522847 78.5522847,16 78,16 C77.4477153,16 77,15.5522847 77,15 C77,14.4477153 77.4477153,14 78,14 Z M57,14 C57.5522847,14 58,14.4477153 58,15 C58,15.5522847 57.5522847,16 57,16 C56.4477153,16 56,15.5522847 56,15 C56,14.4477153 56.4477153,14 57,14 Z M36,14 C36.5522847,14 37,14.4477153 37,15 C37,15.5522847 36.5522847,16 36,16 C35.4477153,16 35,15.5522847 35,15 C35,14.4477153 35.4477153,14 36,14 Z M85,14 C85.5522847,14 86,14.4477153 86,15 C86,15.5522847 85.5522847,16 85,16 C84.4477153,16 84,15.5522847 84,15 C84,14.4477153 84.4477153,14 85,14 Z M92,14 C92.5522847,14 93,14.4477153 93,15 C93,15.5522847 92.5522847,16 92,16 C91.4477153,16 91,15.5522847 91,15 C91,14.4477153 91.4477153,14 92,14 Z M113,14 C113.552285,14 114,14.4477153 114,15 C114,15.5522847 113.552285,16 113,16 C112.447715,16 112,15.5522847 112,15 C112,14.4477153 112.447715,14 113,14 Z M148,14 C148.552285,14 149,14.4477153 149,15 C149,15.5522847 148.552285,16 148,16 C147.447715,16 147,15.5522847 147,15 C147,14.4477153 147.447715,14 148,14 Z M141,14 C141.552285,14 142,14.4477153 142,15 C142,15.5522847 141.552285,16 141,16 C140.447715,16 140,15.5522847 140,15 C140,14.4477153 140.447715,14 141,14 Z M106,14 C106.552285,14 107,14.4477153 107,15 C107,15.5522847 106.552285,16 106,16 C105.447715,16 105,15.5522847 105,15 C105,14.4477153 105.447715,14 106,14 Z M43,14 C43.5522847,14 44,14.4477153 44,15 C44,15.5522847 43.5522847,16 43,16 C42.4477153,16 42,15.5522847 42,15 C42,14.4477153 42.4477153,14 43,14 Z M50,14 C50.5522847,14 51,14.4477153 51,15 C51,15.5522847 50.5522847,16 50,16 C49.4477153,16 49,15.5522847 49,15 C49,14.4477153 49.4477153,14 50,14 Z M99,14 C99.5522847,14 100,14.4477153 100,15 C100,15.5522847 99.5522847,16 99,16 C98.4477153,16 98,15.5522847 98,15 C98,14.4477153 98.4477153,14 99,14 Z M120,14 C120.552285,14 121,14.4477153 121,15 C121,15.5522847 120.552285,16 120,16 C119.447715,16 119,15.5522847 119,15 C119,14.4477153 119.447715,14 120,14 Z M15,14 C15.5522847,14 16,14.4477153 16,15 C16,15.5522847 15.5522847,16 15,16 C14.4477153,16 14,15.5522847 14,15 C14,14.4477153 14.4477153,14 15,14 Z M22,14 C22.5522847,14 23,14.4477153 23,15 C23,15.5522847 22.5522847,16 22,16 C21.4477153,16 21,15.5522847 21,15 C21,14.4477153 21.4477153,14 22,14 Z M127,14 C127.552285,14 128,14.4477153 128,15 C128,15.5522847 127.552285,16 127,16 C126.447715,16 126,15.5522847 126,15 C126,14.4477153 126.447715,14 127,14 Z M134,14 C134.552285,14 135,14.4477153 135,15 C135,15.5522847 134.552285,16 134,16 C133.447715,16 133,15.5522847 133,15 C133,14.4477153 133.447715,14 134,14 Z M8,7 C8.55228475,7 9,7.44771525 9,8 C9,8.55228475 8.55228475,9 8,9 C7.44771525,9 7,8.55228475 7,8 C7,7.44771525 7.44771525,7 8,7 Z M1,7 C1.55228475,7 2,7.44771525 2,8 C2,8.55228475 1.55228475,9 1,9 C0.44771525,9 0,8.55228475 0,8 C0,7.44771525 0.44771525,7 1,7 Z M15,7 C15.5522847,7 16,7.44771525 16,8 C16,8.55228475 15.5522847,9 15,9 C14.4477153,9 14,8.55228475 14,8 C14,7.44771525 14.4477153,7 15,7 Z M78,7 C78.5522847,7 79,7.44771525 79,8 C79,8.55228475 78.5522847,9 78,9 C77.4477153,9 77,8.55228475 77,8 C77,7.44771525 77.4477153,7 78,7 Z M22,7 C22.5522847,7 23,7.44771525 23,8 C23,8.55228475 22.5522847,9 22,9 C21.4477153,9 21,8.55228475 21,8 C21,7.44771525 21.4477153,7 22,7 Z M43,7 C43.5522847,7 44,7.44771525 44,8 C44,8.55228475 43.5522847,9 43,9 C42.4477153,9 42,8.55228475 42,8 C42,7.44771525 42.4477153,7 43,7 Z M92,7 C92.5522847,7 93,7.44771525 93,8 C93,8.55228475 92.5522847,9 92,9 C91.4477153,9 91,8.55228475 91,8 C91,7.44771525 91.4477153,7 92,7 Z M71,7 C71.5522847,7 72,7.44771525 72,8 C72,8.55228475 71.5522847,9 71,9 C70.4477153,9 70,8.55228475 70,8 C70,7.44771525 70.4477153,7 71,7 Z M50,7 C50.5522847,7 51,7.44771525 51,8 C51,8.55228475 50.5522847,9 50,9 C49.4477153,9 49,8.55228475 49,8 C49,7.44771525 49.4477153,7 50,7 Z M99,7 C99.5522847,7 100,7.44771525 100,8 C100,8.55228475 99.5522847,9 99,9 C98.4477153,9 98,8.55228475 98,8 C98,7.44771525 98.4477153,7 99,7 Z M106,7 C106.552285,7 107,7.44771525 107,8 C107,8.55228475 106.552285,9 106,9 C105.447715,9 105,8.55228475 105,8 C105,7.44771525 105.447715,7 106,7 Z M127,7 C127.552285,7 128,7.44771525 128,8 C128,8.55228475 127.552285,9 127,9 C126.447715,9 126,8.55228475 126,8 C126,7.44771525 126.447715,7 127,7 Z M64,7 C64.5522847,7 65,7.44771525 65,8 C65,8.55228475 64.5522847,9 64,9 C63.4477153,9 63,8.55228475 63,8 C63,7.44771525 63.4477153,7 64,7 Z M113,7 C113.552285,7 114,7.44771525 114,8 C114,8.55228475 113.552285,9 113,9 C112.447715,9 112,8.55228475 112,8 C112,7.44771525 112.447715,7 113,7 Z M134,7 C134.552285,7 135,7.44771525 135,8 C135,8.55228475 134.552285,9 134,9 C133.447715,9 133,8.55228475 133,8 C133,7.44771525 133.447715,7 134,7 Z M29,7 C29.5522847,7 30,7.44771525 30,8 C30,8.55228475 29.5522847,9 29,9 C28.4477153,9 28,8.55228475 28,8 C28,7.44771525 28.4477153,7 29,7 Z M36,7 C36.5522847,7 37,7.44771525 37,8 C37,8.55228475 36.5522847,9 36,9 C35.4477153,9 35,8.55228475 35,8 C35,7.44771525 35.4477153,7 36,7 Z M141,7 C141.552285,7 142,7.44771525 142,8 C142,8.55228475 141.552285,9 141,9 C140.447715,9 140,8.55228475 140,8 C140,7.44771525 140.447715,7 141,7 Z M148,7 C148.552285,7 149,7.44771525 149,8 C149,8.55228475 148.552285,9 148,9 C147.447715,9 147,8.55228475 147,8 C147,7.44771525 147.447715,7 148,7 Z M85,7 C85.5522847,7 86,7.44771525 86,8 C86,8.55228475 85.5522847,9 85,9 C84.4477153,9 84,8.55228475 84,8 C84,7.44771525 84.4477153,7 85,7 Z M120,7 C120.552285,7 121,7.44771525 121,8 C121,8.55228475 120.552285,9 120,9 C119.447715,9 119,8.55228475 119,8 C119,7.44771525 119.447715,7 120,7 Z M57,7 C57.5522847,7 58,7.44771525 58,8 C58,8.55228475 57.5522847,9 57,9 C56.4477153,9 56,8.55228475 56,8 C56,7.44771525 56.4477153,7 57,7 Z M64,0 C64.5522847,0 65,0.44771525 65,1 C65,1.55228475 64.5522847,2 64,2 C63.4477153,2 63,1.55228475 63,1 C63,0.44771525 63.4477153,0 64,0 Z M71,0 C71.5522847,0 72,0.44771525 72,1 C72,1.55228475 71.5522847,2 71,2 C70.4477153,2 70,1.55228475 70,1 C70,0.44771525 70.4477153,0 71,0 Z M78,0 C78.5522847,0 79,0.44771525 79,1 C79,1.55228475 78.5522847,2 78,2 C77.4477153,2 77,1.55228475 77,1 C77,0.44771525 77.4477153,0 78,0 Z M85,0 C85.5522847,0 86,0.44771525 86,1 C86,1.55228475 85.5522847,2 85,2 C84.4477153,2 84,1.55228475 84,1 C84,0.44771525 84.4477153,0 85,0 Z M92,0 C92.5522847,0 93,0.44771525 93,1 C93,1.55228475 92.5522847,2 92,2 C91.4477153,2 91,1.55228475 91,1 C91,0.44771525 91.4477153,0 92,0 Z M99,0 C99.5522847,0 100,0.44771525 100,1 C100,1.55228475 99.5522847,2 99,2 C98.4477153,2 98,1.55228475 98,1 C98,0.44771525 98.4477153,0 99,0 Z M106,0 C106.552285,0 107,0.44771525 107,1 C107,1.55228475 106.552285,2 106,2 C105.447715,2 105,1.55228475 105,1 C105,0.44771525 105.447715,0 106,0 Z M8,0 C8.55228475,0 9,0.44771525 9,1 C9,1.55228475 8.55228475,2 8,2 C7.44771525,2 7,1.55228475 7,1 C7,0.44771525 7.44771525,0 8,0 Z M113,0 C113.552285,0 114,0.44771525 114,1 C114,1.55228475 113.552285,2 113,2 C112.447715,2 112,1.55228475 112,1 C112,0.44771525 112.447715,0 113,0 Z M15,0 C15.5522847,0 16,0.44771525 16,1 C16,1.55228475 15.5522847,2 15,2 C14.4477153,2 14,1.55228475 14,1 C14,0.44771525 14.4477153,0 15,0 Z M120,0 C120.552285,0 121,0.44771525 121,1 C121,1.55228475 120.552285,2 120,2 C119.447715,2 119,1.55228475 119,1 C119,0.44771525 119.447715,0 120,0 Z M22,0 C22.5522847,0 23,0.44771525 23,1 C23,1.55228475 22.5522847,2 22,2 C21.4477153,2 21,1.55228475 21,1 C21,0.44771525 21.4477153,0 22,0 Z M127,0 C127.552285,0 128,0.44771525 128,1 C128,1.55228475 127.552285,2 127,2 C126.447715,2 126,1.55228475 126,1 C126,0.44771525 126.447715,0 127,0 Z M29,0 C29.5522847,0 30,0.44771525 30,1 C30,1.55228475 29.5522847,2 29,2 C28.4477153,2 28,1.55228475 28,1 C28,0.44771525 28.4477153,0 29,0 Z M134,0 C134.552285,0 135,0.44771525 135,1 C135,1.55228475 134.552285,2 134,2 C133.447715,2 133,1.55228475 133,1 C133,0.44771525 133.447715,0 134,0 Z M36,0 C36.5522847,0 37,0.44771525 37,1 C37,1.55228475 36.5522847,2 36,2 C35.4477153,2 35,1.55228475 35,1 C35,0.44771525 35.4477153,0 36,0 Z M141,0 C141.552285,0 142,0.44771525 142,1 C142,1.55228475 141.552285,2 141,2 C140.447715,2 140,1.55228475 140,1 C140,0.44771525 140.447715,0 141,0 Z M43,0 C43.5522847,0 44,0.44771525 44,1 C44,1.55228475 43.5522847,2 43,2 C42.4477153,2 42,1.55228475 42,1 C42,0.44771525 42.4477153,0 43,0 Z M148,0 C148.552285,0 149,0.44771525 149,1 C149,1.55228475 148.552285,2 148,2 C147.447715,2 147,1.55228475 147,1 C147,0.44771525 147.447715,0 148,0 Z M50,0 C50.5522847,0 51,0.44771525 51,1 C51,1.55228475 50.5522847,2 50,2 C49.4477153,2 49,1.55228475 49,1 C49,0.44771525 49.4477153,0 50,0 Z M1,0 C1.55228475,0 2,0.44771525 2,1 C2,1.55228475 1.55228475,2 1,2 C0.44771525,2 0,1.55228475 0,1 C0,0.44771525 0.44771525,0 1,0 Z M57,0 C57.5522847,0 58,0.44771525 58,1 C58,1.55228475 57.5522847,2 57,2 C56.4477153,2 56,1.55228475 56,1 C56,0.44771525 56.4477153,0 57,0 Z" id="path-1"></path>
    </defs>
    <g id="画板" stroke="none" stroke-width="1" fill="none" fill-rule="evenodd">
        <g id="Group-8">
            <g id="Combined-Shape-2">
                <mask id="mask-2" fill="white">
                    <use xlink:href="#path-1"></use>
                </mask>
                <use id="Combined-Shape" fill="#D8D8D8" xlink:href="#path-1"></use>
            </g>
        </g>
    </g>
</svg>