<?xml version="1.0" encoding="UTF-8"?>
<svg width="399px" height="315px" viewBox="0 0 399 315" version="1.1" xmlns="http://www.w3.org/2000/svg" xmlns:xlink="http://www.w3.org/1999/xlink">
    <!-- Generator: Sketch 59.1 (86144) - https://sketch.com -->
    <title>下载</title>
    <desc>Created with Sketch.</desc>
    <defs>
        <rect id="path-1" x="0" y="0" width="400" height="315"></rect>
    </defs>
    <g id="页面-1" stroke="none" stroke-width="1" fill="none" fill-rule="evenodd">
        <g id="下载" transform="translate(-1.000000, 0.000000)">
            <mask id="mask-2" fill="white">
                <use xlink:href="#path-1"></use>
            </mask>
            <g id="Rectangle"></g>
            <path d="M0,317.746479 L25.9802832,291.775035 C46.4164004,271.347024 74.1333148,259.87057 103.033989,259.870209 L323.450266,259.870209 C327.884346,259.870209 331.478793,256.278736 331.478793,251.845486 L331.478793,142.332579 M360.452264,317.746479 L360.452264,9.01408451 M376.829607,214.584567 L383.098592,214.584567 M376.829607,205.041697 L383.098592,205.041697 M376.829607,195.498827 L383.098592,195.498827 M376.829607,185.956776 L383.098592,185.956776 M376.829607,176.413087 L383.098592,176.413087 M376.829607,166.871036 L383.098592,166.871036 M376.829607,157.327348 L383.098592,157.327348 M376.829607,147.785297 L383.098592,147.785297 M376.829607,138.242427 L383.098592,138.242427 M376.829607,128.700376 L383.098592,128.700376 M376.829607,119.156687 L383.098592,119.156687 M376.829607,109.613817 L383.098592,109.613817 M376.829607,100.071766 L383.098592,100.071766 M376.829607,90.5280771 L383.098592,90.5280771 M376.829607,80.9860261 L383.098592,80.9860261 M376.829607,71.4431562 L383.098592,71.4431562" id="Shape" stroke="#0052D9" stroke-width="2.25352113" mask="url(#mask-2)"></path>
            <path d="M428.169014,316.620128 C428.169014,353.95667 397.64892,384.225352 359.999586,384.225352 C322.351907,384.225352 291.830986,353.95749 291.830986,316.620128 C291.830986,279.282766 322.351907,249.014085 359.999586,249.014085 C397.64892,249.014085 428.169014,279.282766 428.169014,316.620128 L428.169014,316.620128 Z" id="Path" stroke="#0052D9" stroke-width="2.25352113" stroke-linejoin="round" stroke-dasharray="4.507042253521127,6.76056338028169" mask="url(#mask-2)"></path>
            <path d="M333.914596,140.729998 C332.554414,141.515111 330.87842,141.515424 329.517945,140.730817 C328.157469,139.94621 327.319202,138.495884 327.318909,136.926164 C327.318457,134.499586 329.286538,132.53209 331.714741,132.531637 C334.142944,132.531185 336.111759,134.497948 336.112212,136.924525 C336.112505,138.494246 335.274779,139.944884 333.914596,140.729998 Z M360.708133,9.91499497 C358.279703,9.91499497 356.311072,7.94768169 356.311072,5.52087777 C356.311072,3.09407385 358.279703,1.12676056 360.708133,1.12676056 C363.136563,1.12676056 365.105194,3.09407385 365.105194,5.52087777 C365.105194,7.94768169 363.136563,9.91499497 360.708133,9.91499497 Z M397.746479,316.788861 C397.746479,337.230577 381.163955,353.802817 360.707723,353.802817 C340.251491,353.802817 323.668967,337.230577 323.668967,316.788861 C323.668967,296.346325 340.250671,279.774904 360.707723,279.774904 C381.163955,279.774904 397.746479,296.345506 397.746479,316.788861 Z M77.6925468,261.908471 L77.6925468,316.796233 M87.6440281,316.800328 L87.6440281,295.986735 M97.6028863,316.800328 L97.6028863,292.964218 M107.553548,316.800328 L107.553548,289.949893 M117.50339,316.800328 L117.50339,286.927376 M127.454871,316.800328 L127.454871,283.929432 M137.41291,316.800328 L137.41291,282.471416 M147.364391,316.800328 L147.364391,285.895297 M157.315052,316.800328 L157.315052,289.655013 M167.273911,316.800328 L167.273911,291.940331 M177.224572,316.800328 L177.224572,293.766947 M187.174414,316.800328 L187.174414,294.594248 M197.134092,316.800328 L197.134092,293.234525 M207.083934,316.800328 L207.083934,289.171738 M217.035415,316.800328 L217.035415,283.257761 M226.993454,316.800328 L226.993454,282.455033 M236.944935,316.800328 L236.944935,283.937623 M246.895597,316.800328 L246.895597,280.57108 M256.845439,316.800328 L256.845439,276.926039 M266.805116,316.800328 L266.805116,274.657103 M276.755778,258.571415 L276.755778,316.79869 M77.6925468,287.685053 L29.2957746,287.685053 M299.372632,287.685053 L276.755778,287.685053" id="Shape" stroke="#0052D9" stroke-width="2.25352113" mask="url(#mask-2)"></path>
        </g>
    </g>
</svg>
