<?xml version="1.0" encoding="UTF-8"?>
<svg width="316px" height="226px" viewBox="0 0 316 226" version="1.1" xmlns="http://www.w3.org/2000/svg" xmlns:xlink="http://www.w3.org/1999/xlink">
    <!-- Generator: Sketch 59.1 (86144) - https://sketch.com -->
    <title>下载 (1)</title>
    <desc>Created with Sketch.</desc>
    <defs>
        <polygon id="path-1" points="0 0.0291240876 230 0.0291240876 230 227.197007 0 227.197007"></polygon>
    </defs>
    <g id="页面-1" stroke="none" stroke-width="1" fill="none" fill-rule="evenodd">
        <g id="下载-(1)" transform="translate(1.000000, -4.000000)">
            <g id="Group" transform="translate(115.000000, 115.000000) rotate(-90.000000) translate(-115.000000, -115.000000) translate(0.000000, 1.000000)">
                <g id="Clipped">
                    <mask id="mask-2" fill="white">
                        <use xlink:href="#path-1"></use>
                    </mask>
                    <g id="a"></g>
                    <path d="M0,221.334745 L59.0098921,221.334745 C63.4882734,221.334745 67.1178058,217.683416 67.1178058,213.18 L67.1178058,68.9991241 C67.1178058,64.495708 70.7481655,60.8443796 75.2257194,60.8443796 L216.348921,60.8443796 C220.826475,60.8443796 224.456835,57.1930511 224.456835,52.689635 L224.456835,0.0291240876" id="Path" stroke="#0052D9" stroke-width="2" mask="url(#mask-2)"></path>
                </g>
            </g>
            <path d="M0,20 L61.2806643,81.2806643 C61.2806643,126.735769 98.1289296,163.584865 143.585695,163.584865 L209,229" id="Path" stroke="#0052D9" stroke-width="2" stroke-linejoin="round" stroke-dasharray="4,6"></path>
            <path d="M168,187 L40,187 L40,121" id="Path" stroke="#0052D9" stroke-width="2" stroke-linejoin="round" stroke-dasharray="4,6"></path>
            <path d="M305.120049,187.605114 L173.06958,187.605114 M309.560439,183.20859 C312.012341,183.20859 314,185.176614 314,187.604295 C314,190.031976 312.012341,192 309.560439,192 C307.108536,192 305.120877,190.031976 305.120877,187.604295 C305.120877,185.176614 307.108536,183.20859 309.560439,183.20859 Z M41.4403889,114.000819 C43.8925195,114.000819 45.8803642,115.969027 45.8803642,118.396934 C45.8803642,120.824841 43.8925195,122.793049 41.4403889,122.793049 C38.9880298,122.793049 37,120.824658 37,118.396525 C37,115.968391 38.9880298,114 41.4403889,114 L41.4403889,114.000819 Z" id="Shape" stroke="#0052D9" stroke-width="2"></path>
        </g>
    </g>
</svg>
