<?xml version="1.0" encoding="UTF-8"?>
<svg width="24px" height="24px" viewBox="0 0 24 24" version="1.1" xmlns="http://www.w3.org/2000/svg" xmlns:xlink="http://www.w3.org/1999/xlink">
    <!-- Generator: Sketch 59.1 (86144) - https://sketch.com -->
    <title>画板</title>
    <desc>Created with Sketch.</desc>
    <g id="画板" stroke="none" stroke-width="1" fill="none" fill-rule="evenodd">
        <g id="Group-16" transform="translate(2.000000, 2.000000)" fill="#0052D9" fill-rule="nonzero">
            <path d="M10.0011172,0 C4.4754776,-0.0022943034 0,4.59261025 0,10.2639435 C0,14.7486805 2.79968718,18.5609365 6.69869287,19.9609823 C7.22377387,20.0963966 7.14333593,19.7131054 7.14333595,19.4514574 L7.14333595,17.6727107 C4.1112725,18.0376407 3.98838118,15.9765896 3.78505195,15.632316 C3.37392471,14.9116367 2.40196626,14.7280241 2.6924366,14.3837505 C3.38286226,14.0188205 4.08669423,14.4755568 4.90224555,15.7126465 C5.49212379,16.6100529 6.64283319,16.4585726 7.22600826,16.3093874 C7.35336834,15.7700254 7.62596358,15.2880424 8.00134063,14.9139318 C4.85979221,14.3355522 3.55044129,12.3663074 3.55044129,10.0252472 C3.55044129,8.88914438 3.9146464,7.84484789 4.62965032,7.00252523 C4.17383532,5.61395517 4.67210368,4.42506378 4.73913529,4.24833669 C6.03731426,4.12898852 7.38688414,5.20312205 7.49190034,5.28804287 C8.22924813,5.08377388 9.07161211,4.9759015 10.0145235,4.97590148 C10.9619037,4.97590148 11.8065021,5.08836418 12.550553,5.29492834 C12.8030388,5.09754484 14.0542956,4.17489166 15.2608647,4.28735435 C15.3256619,4.46408145 15.8127583,5.62543095 15.383756,6.99563976 C16.1076975,7.84025758 16.4763713,8.8937347 16.4763713,10.0321326 C16.4763713,12.3777832 15.1580829,14.3493232 12.0075969,14.9185221 C12.5527032,15.4691777 12.8594623,16.2217841 12.8588984,17.0071151 L12.8588984,19.5891669 C12.8767736,19.795731 12.8588984,20 13.1940565,20 C17.1511563,18.6297912 20,14.7899933 20,10.2662387 C20,4.59261025 15.522288,0 10.0011172,0 L10.0011172,0 Z" id="Path"></path>
        </g>
    </g>
</svg>
