<?xml version="1.0" encoding="UTF-8"?>
<svg width="16px" height="16px" viewBox="0 0 16 16" version="1.1" xmlns="http://www.w3.org/2000/svg" xmlns:xlink="http://www.w3.org/1999/xlink">
    <title>linux-2</title>
    <g id="设计稿" stroke="none" stroke-width="1" fill="none" fill-rule="evenodd">
        <g id="linux-2">
            <rect id="矩形" x="0" y="0" width="16" height="16"></rect>
            <path d="M13.8273436,12.5721889 C13.5686428,12.0897722 13.3221137,11.4258533 13.2634364,10.8995166 C13.1391869,9.78533388 13.3865779,9.21833107 12.8006491,8.12650415 C12.4488492,7.47095771 11.9710232,6.89846709 11.5735971,6.27306841 C10.5708766,4.69518379 10.9428161,3.07772366 10.1997814,1.45667535 C9.94162593,0.893454193 9.50902157,0.431440826 8.90923264,0.23827713 C8.20526336,0.0115709852 7.36070426,0.116824269 6.73133043,0.503696923 C5.00838836,1.5627905 6.2634423,4.73651822 5.28490689,6.35309889 C4.66934052,7.37004894 4.00658254,8.27018965 3.65077227,9.43777291 C3.37001477,10.3590206 3.44137382,11.4860433 2.34680299,11.886741 C2.05162241,11.994791 1.61268597,11.9794005 1.450356,12.3022663 C1.348515,12.5048578 1.41866041,12.7365241 1.46708325,12.9433721 C1.50852321,13.1204242 1.52027274,13.2927096 1.4999749,13.4735081 C1.47093527,13.7322441 1.36951641,13.9812884 1.35444254,14.2411148 C1.33899929,14.5074493 1.50509333,14.6729453 1.73619676,14.778181 C2.56988578,15.1578421 3.73400398,15.3811184 4.63257926,15.5479511 C5.79395356,15.7635586 5.68103142,15.4181962 6.66976852,15.1428913 C7.3679158,14.9484964 8.22580745,14.8974352 8.94238813,15.0228104 C9.70000421,15.155362 10.2257957,15.7975407 10.9139524,15.8799282 C11.4982629,15.8799282 14.6099362,14.2741648 14.6453783,13.5743993 C14.6772322,12.9446737 14.0519918,12.9910914 13.8273436,12.5721889 Z M9.04078165,2.30797108 C9.6463574,2.74579941 9.00933231,4.06354097 8.78048029,3.84022952 C9.51262734,3.26610311 8.16517776,2.37818684 8.26292049,3.63436648 C7.32631754,3.42869692 8.20580862,1.70429495 9.04078165,2.30797108 L9.04078165,2.30797108 Z M8.96973921,4.38213266 C9.0024022,4.88113595 7.83539938,5.23254894 7.46945778,5.37512633 C6.07191439,5.36369341 6.52024343,3.93033857 7.60343409,3.81219247 C7.81255112,3.78939697 8.94813977,4.05221357 8.96973921,4.38213266 Z M6.33631402,2.48789017 C7.08098451,1.9754488 7.57221341,3.24876024 6.92303423,3.65315166 C7.21846106,2.10455293 5.51965126,3.44241644 6.70352204,3.85398421 C6.22907316,4.36909913 5.88244441,2.80022014 6.33631402,2.48789017 L6.33631402,2.48789017 Z M5.31836139,15.3460281 C4.64093409,15.155362 2.12415994,14.8468665 1.78384568,14.2214326 C1.77899108,14.2125149 1.7776719,14.1814701 1.77888555,14.135545 C1.77855135,14.1349821 1.7781468,14.1344368 1.7778302,14.133874 C1.76317846,14.1089854 1.77584263,13.9902588 1.79974624,13.8428268 C1.83279619,13.491449 1.89462194,13.0180027 1.91432176,12.9748566 C2.14130933,12.477665 2.13895239,12.5556024 2.29881988,12.5124211 C2.39753001,12.4582642 2.54307996,12.3786207 2.7833825,12.1706821 C3.44791697,11.5956763 3.65664704,11.2727577 4.03354666,11.5131657 C4.18177016,11.565036 4.32019652,11.710287 4.49061749,11.9540722 C4.5413244,12.013314 4.59133952,12.0731445 4.64065267,12.1335515 C4.93885858,12.4981212 5.61165994,13.3840147 5.85053775,14.1400126 C6.08705862,14.6676861 6.09664469,15.1689936 5.31836139,15.3460281 L5.31836139,15.3460281 Z M10.4318874,11.2479042 C10.1342795,12.0076662 10.4108508,12.7060245 9.8076848,13.369961 C8.77733184,14.5041073 6.84757692,14.4479453 5.93144769,13.3980684 C7.02181472,12.9597828 4.53492448,11.0176627 4.45047912,10.2137872 C4.26647936,8.46256184 5.88371083,6.67033623 6.2526074,4.99381184 C7.613284,6.43634819 8.45472982,4.4001791 9.59337898,5.37581231 C10.4805037,6.13592605 11.394663,9.1153116 11.1361557,10.2625794 C10.9893745,10.9139748 10.5669015,10.9032631 10.4318874,11.2479042 L10.4318874,11.2479042 Z M12.2500922,14.750056 C9.43599155,16.4339326 11.0165673,12.159601 11.092992,11.6114537 C11.2923823,13.427794 12.3956773,11.9402823 13.0379791,11.7425454 C12.7250863,11.838881 14.0513938,13.4387696 14.03683,13.2559307 C14.0917608,13.9458287 12.9256198,14.3458405 12.2500922,14.750056 L12.2500922,14.750056 Z" id="形状" fill="#A0B7BF" fill-rule="nonzero"></path>
        </g>
    </g>
</svg>