<?xml version="1.0" encoding="UTF-8"?>
<svg width="214px" height="26px" viewBox="0 0 213 26" version="1.1" xmlns="http://www.w3.org/2000/svg" xmlns:xlink="http://www.w3.org/1999/xlink">
    <!-- Generator: Sketch 59.1 (86144) - https://sketch.com -->
    <title>下载 (2)</title>
    <desc>Created with Sketch.</desc>
    <g id="页面-1" stroke="none" stroke-width="1" fill="none" fill-rule="evenodd">
        <g id="下载-(2)" transform="translate(0.000000, -2.000000)">
            <path d="M-6.82121026e-13,22.298529 L5.70565785,22.298529 L3.93771945,27.6367717 L-6.82121026e-13,27.6367717 L-6.82121026e-13,22.298529 Z M-6.82121026e-13,12.1492362 L9.06629287,12.1492362 L7.29863666,17.487479 L-6.82121026e-13,17.487479 L-6.82121026e-13,12.1492362 Z M-6.82121026e-13,1.99994356 L12.4269279,1.99994356 L10.6592716,7.33846847 L-6.82121026e-13,7.33846847 L-6.82121026e-13,1.99994356 Z M18.0504111,1.99994356 L32.2351185,1.99994356 L32.2351185,7.33846847 L16.2827549,7.33846847 L18.0504111,1.99994356 Z M12.9220917,17.4875072 L14.6897479,12.1492645 L32.2350903,12.1492645 L32.2350903,17.4875072 L12.9220917,17.4875072 Z M11.329,22.298529 L32.2349774,22.298529 L32.2349774,27.6367717 L9.56134386,27.6367717 L11.329,22.298529 Z" id="logo-mark" fill="#FD5750" fill-rule="nonzero"></path>
            <path d="M81.5192303,17.8405305 L84.3050384,9.41961275 C85.1248087,9.41961275 85.9028144,9.42751415 86.6585272,9.42751415 L82.9476907,20.1697505 L80.0185285,20.1697505 L76.5184902,9.41961275 L78.9625628,9.41961275 L81.5192303,17.8405305 Z M113.981881,4.02202486 L113.981881,18.0808742 L117.232743,18.0808742 L117.232743,20.1696659 L111.678622,20.1696659 L111.678622,5.96520504 L109.384395,5.96520504 L109.384395,4.02202486 L113.981881,4.02202486 Z M102.960358,11.407972 C103.007202,11.2259576 103.492856,9.32172004 105.377622,9.32172004 L108.611835,9.32172004 L108.611835,11.6492469 L105.028268,11.6492469 C104.143028,11.6492469 103.103712,12.3919786 103.103712,13.6068189 C103.103712,13.6068189 103.093553,19.9903041 103.093553,20.1697787 L100.723133,20.1697787 L100.723133,9.39198606 C101.45627,9.39198606 102.125914,9.38916413 102.914925,9.38916413 L102.960358,11.407972 Z M136.209255,13.6222548 C137.940226,13.8259981 140.553896,14.1341528 140.693864,16.8025687 C140.761308,18.0560694 140.262673,18.8400012 139.834023,19.277118 C138.728673,20.4027855 136.973433,20.4764377 135.750127,20.4338267 C133.361082,20.3505797 131.307846,19.3527457 131.221778,19.3104168 L132.216508,17.2862472 C132.231463,17.2935842 133.826418,18.1508862 135.715135,18.2931115 C138.542707,18.5061671 138.564154,17.3926339 138.539603,16.9213719 C138.506023,16.2954681 137.941919,16.0973686 135.945969,15.862302 C134.170976,15.653197 131.487603,15.337141 131.423546,12.5301685 C131.402663,11.6638363 131.707714,10.8934497 132.305962,10.3031022 C133.104851,9.51324435 134.410839,9.08967283 135.889813,9.14131413 C138.150741,9.22004594 140.095897,9.81942362 140.177451,9.84453879 L139.50696,11.998517 C139.489465,11.9931554 137.758494,11.4631972 135.811363,11.3954709 C134.989052,11.3669694 134.234751,11.5676085 133.891322,11.9070866 C133.737528,12.0583419 133.672905,12.2344303 133.67742,12.478245 C133.693505,13.13519 134.026775,13.3651772 136.209255,13.6222548 Z M152.225365,16.8024275 C152.292528,18.0559283 151.794175,18.8401423 151.365524,19.2772591 C150.259892,20.4029265 148.504652,20.4765788 147.281628,20.4336855 C144.892583,20.3504386 142.839066,19.3526046 142.75328,19.3105578 L143.671817,17.4410301 C143.687056,17.4483671 145.357637,18.1507451 147.246355,18.2929703 C150.073927,18.506026 150.095655,17.3927751 150.070822,16.9212308 C150.037524,16.295327 149.47342,16.0975098 147.477753,15.862443 C145.702477,15.6533381 143.019105,15.3369999 142.954765,12.5303095 C142.934165,11.6636952 143.239215,10.8935908 143.837182,10.3029611 C144.63607,9.51310325 145.942059,9.08953173 147.421596,9.14145523 C149.681961,9.21990485 151.627399,9.81928252 151.70867,9.84467988 L151.038462,11.9983759 C151.020684,11.9932965 149.291406,11.3956119 147.342864,11.3956119 C145.625156,11.3956119 145.209204,11.9433484 145.209204,12.4781039 C145.209204,13.1353311 145.558277,13.365036 147.740756,13.6221138 C149.471445,13.8261393 152.085398,14.1340116 152.225365,16.8024275 Z M47.470063,13.6222548 C49.200752,13.8259981 51.8147047,14.1341528 51.9546723,16.8025687 C52.0218342,18.0560694 51.5234816,18.8400012 51.0948306,19.277118 C49.9891989,20.4027855 48.2342414,20.4764377 47.0109352,20.4338267 C44.6218903,20.3505797 42.5683727,19.3527457 42.4823039,19.3104168 L43.477316,17.2862472 C43.4925544,17.2935842 45.0869442,18.1508862 46.9759433,18.2931115 C49.8032338,18.5061671 49.8252448,17.3926339 49.8004119,16.9213719 C49.7668309,16.2954681 49.2027273,16.0973686 47.2067771,15.862302 C45.4317839,15.653197 42.7484118,15.337141 42.6840718,12.5301685 C42.6634717,11.6638363 42.9685223,10.8934497 43.5664889,10.3031022 C44.3656592,9.51324435 45.6713656,9.08967283 47.1506207,9.14131413 C49.4112679,9.22004594 51.3567056,9.81942362 51.4379772,9.84453879 L50.7677691,11.998517 C50.749991,11.9931554 49.0195842,11.4631972 47.0721711,11.3954709 C46.2495789,11.3669694 45.4952773,11.5676085 45.1524129,11.9070866 C44.9986178,12.0583419 44.9337135,12.2344303 44.9385108,12.478245 C44.9540313,13.13519 45.2878656,13.3651772 47.470063,13.6222548 Z M124.068498,9.12548311 C129.147406,9.12548311 129.147406,14.2946923 129.147406,14.2946923 L129.147406,15.6777196 L121.077819,15.6777196 C121.077819,16.9916097 122.224933,18.4048316 124.35182,18.4048316 C126.128789,18.4048316 127.971509,17.6866507 127.971509,17.6866507 L128.559316,19.5350141 C128.559316,19.5350141 126.295,20.4408532 124.162469,20.4408532 C119.081868,20.4408532 118.703166,15.9235096 118.703166,14.7013322 C118.703166,13.4783083 119.560749,9.12548311 124.068498,9.12548311 Z M126.954485,13.7291777 C126.954485,13.7291777 127.05805,11.1756144 124.068781,11.1756144 C121.365373,11.1756144 121.050446,13.7291777 121.050446,13.7291777 L126.954485,13.7291777 Z M93.2041886,9.12548311 C98.2833785,9.12548311 98.2833785,14.2946923 98.2833785,14.2946923 L98.2833785,15.6777196 L90.2137908,15.6777196 C90.2137908,16.9916097 91.3611867,18.4048316 93.4880742,18.4048316 C95.2647608,18.4048316 97.1074799,17.6866507 97.1074799,17.6866507 L97.6952883,19.5350141 C97.6952883,19.5350141 95.4309726,20.4408532 93.2984411,20.4408532 C88.2178404,20.4408532 87.8391378,15.9235096 87.8391378,14.7013322 C87.8391378,13.4783083 88.6967214,9.12548311 93.2041886,9.12548311 Z M96.0904575,13.7291777 C96.0904575,13.7291777 96.1940218,11.1756144 93.2047531,11.1756144 C90.5013452,11.1756144 90.1864181,13.7291777 90.1864181,13.7291777 L96.0904575,13.7291777 Z M59.1149216,9.12548311 C64.1941113,9.12548311 64.1941113,14.2946923 64.1941113,14.2946923 L64.1941113,15.6777196 L56.1242415,15.6777196 C56.1242415,16.9916097 57.2716377,18.4048316 59.3985254,18.4048316 C61.1752118,18.4048316 63.0179313,17.6866507 63.0179313,17.6866507 L63.6057391,19.5350141 C63.6057391,19.5350141 61.3414234,20.4408532 59.209174,20.4408532 C54.1285734,20.4408532 53.7493062,15.9235096 53.7493062,14.7013322 C53.7493062,13.4783083 54.6074547,9.12548311 59.1149216,9.12548311 Z M62.0011904,13.7291777 C62.0011904,13.7291777 62.1047552,11.1756144 59.115486,11.1756144 C56.4120782,11.1756144 56.097151,13.7291777 56.097151,13.7291777 L62.0011904,13.7291777 Z M68.7840349,11.407972 C68.8308789,11.2259576 69.3162506,9.32172004 71.2012991,9.32172004 L74.4355117,9.32172004 L74.4355117,11.6492469 L70.8519443,11.6492469 C69.9667052,11.6492469 68.9273889,12.3919786 68.9273889,13.6068189 C68.9273889,13.6068189 68.9169478,19.9903041 68.9169478,20.1697787 L66.5468097,20.1697787 L66.5468097,9.39198606 C67.2796646,9.39198606 67.9495905,9.38916413 68.7386018,9.38916413 L68.7840349,11.407972 Z" id="logotype" fill="#0C0C0C" fill-rule="nonzero"></path>
            <text id="中文网" font-family="PingFangSC-Regular, PingFang SC" font-size="18" font-weight="normal" fill="#808080">
                <tspan x="160" y="19.5">中文网</tspan>
            </text>
        </g>
    </g>
</svg>