<?xml version="1.0" encoding="UTF-8"?>
<svg width="211px" height="25px" viewBox="0 0 211 25" version="1.1" xmlns="http://www.w3.org/2000/svg" xmlns:xlink="http://www.w3.org/1999/xlink">
    <!-- Generator: Sketch 59.1 (86144) - https://sketch.com -->
    <title>Group 14</title>
    <desc>Created with Sketch.</desc>
    <g id="页面-1" stroke="none" stroke-width="1" fill="none" fill-rule="evenodd">
        <g id="Group-14">
            <text id="中文网" opacity="0.600000024" font-family="PingFangSC-Regular, PingFang SC" font-size="18" font-weight="normal" fill="#FFFFFF">
                <tspan x="158" y="19">中文网</tspan>
            </text>
            <g id="下载" fill-rule="nonzero">
                <path d="M0,19.5679057 L5.50028894,19.5679057 L3.79598555,24.7140042 L0,24.7140042 L0,19.5679057 Z M0,9.78392558 L8.73996158,9.78392558 L7.03593023,14.9300242 L0,14.9300242 L0,9.78392558 Z M0,-5.44071313e-05 L11.9796343,-5.44071313e-05 L10.2756028,5.14631614 L0,5.14631614 L0,-5.44071313e-05 Z M17.4007063,-5.44071313e-05 L31.0748507,-5.44071313e-05 L31.0748507,5.14631614 L15.696675,5.14631614 L17.4007063,-5.44071313e-05 Z M12.4569752,14.9300513 L14.1610065,9.78395283 L31.0748235,9.78395283 L31.0748235,14.9300513 L12.4569752,14.9300513 Z M10.9212251,19.5679057 L31.0747147,19.5679057 L31.0747147,24.7140042 L9.21719375,24.7140042 L10.9212251,19.5679057 Z" id="logo-mark" fill="#FD5750"></path>
                <path d="M78.5850348,15.2703679 L81.2705708,7.15255191 C82.0608344,7.15255191 82.8108367,7.16016891 83.5393483,7.16016891 L79.9620793,17.5157503 L77.1383492,17.5157503 L73.7642909,7.15255191 L76.1203917,7.15255191 L78.5850348,15.2703679 Z M109.879227,1.94924429 L109.879227,15.5020608 L113.013078,15.5020608 L113.013078,17.5156687 L107.658873,17.5156687 L107.658873,3.82248183 L105.447223,3.82248183 L105.447223,1.94924429 L109.879227,1.94924429 Z M99.2544125,9.06934233 C99.2995708,8.89387933 99.7677442,7.05818274 101.58467,7.05818274 L104.702471,7.05818274 L104.702471,9.30193283 L101.24789,9.30193283 C100.394514,9.30193283 99.3926067,10.0179307 99.3926067,11.1890442 C99.3926067,11.1890442 99.3828133,17.3427628 99.3828133,17.5157774 L97.0977142,17.5157774 L97.0977142,7.12591962 C97.8044625,7.12591962 98.4500033,7.12319926 99.210615,7.12319926 L99.2544125,9.06934233 Z M131.306552,11.2039245 C132.975218,11.4003343 135.494812,11.6973972 135.629743,14.2697664 C135.694759,15.4781487 135.214072,16.2338638 134.80085,16.6552471 C133.735286,17.7403973 132.043224,17.8113986 130.86395,17.7703212 C128.560896,17.6900707 126.581564,16.7281526 126.498593,16.6873472 L127.457519,14.7360355 C127.471937,14.7431084 129.009482,15.5695527 130.830218,15.7066587 C133.556014,15.9120457 133.576689,14.8385929 133.553022,14.3842934 C133.52065,13.7809183 132.976851,13.5899492 131.052743,13.3633436 C129.341638,13.1617652 126.754851,12.8570852 126.693099,10.1511466 C126.672968,9.31599708 126.967039,8.57333975 127.543754,8.00424114 C128.313888,7.24281334 129.572868,6.83448782 130.998607,6.88427034 C133.178157,6.96016829 135.053298,7.53797202 135.131917,7.5621832 L134.48556,9.63863133 C134.468694,9.63346267 132.800027,9.12257975 130.922982,9.05729117 C130.130269,9.02981558 129.403118,9.22323292 129.072051,9.55049183 C128.923792,9.69630292 128.861495,9.86605317 128.865848,10.101092 C128.881353,10.734391 129.202628,10.9561001 131.306552,11.2039245 Z M146.74618,14.2696303 C146.810925,15.4780128 146.33051,16.2339998 145.917287,16.6553831 C144.851452,17.7405333 143.15939,17.8115346 141.980388,17.7701852 C139.677333,17.6899347 137.69773,16.7280166 137.615032,16.6874833 L138.500507,14.8852471 C138.515197,14.89232 140.125648,15.5694168 141.946383,15.7065227 C144.67218,15.9119097 144.693127,14.838729 144.669188,14.3841574 C144.637088,13.7807823 144.093288,13.5900853 142.169453,13.3634796 C140.458076,13.1619012 137.871289,12.8569492 137.809265,10.1512826 C137.789406,9.31586108 138.083477,8.57347575 138.65992,8.00410513 C139.430053,7.24267733 140.689034,6.8343518 142.115318,6.88440637 C144.294323,6.96003228 146.169737,7.53783601 146.248083,7.56231922 L145.601998,9.63849533 C145.58486,9.63359875 143.917825,9.05742717 142.039419,9.05742717 C140.383538,9.05742717 139.982558,9.58544842 139.982558,10.100956 C139.982558,10.734527 140.319066,10.955964 142.422989,11.2037885 C144.091384,11.4004703 146.611251,11.6972612 146.74618,14.2696303 Z M45.7614301,11.2039245 C47.4298247,11.4003343 49.9496911,11.6973972 50.0846207,14.2697664 C50.1493652,15.4781487 49.6689502,16.2338638 49.2557281,16.6552471 C48.1898924,17.7403973 46.4981027,17.8113986 45.3188281,17.7703212 C43.0157742,17.6900707 41.0361707,16.7281526 40.9531999,16.6873472 L41.9123976,14.7360355 C41.9270875,14.7431084 43.464089,15.5695527 45.2850957,15.7066587 C48.0106209,15.9120457 48.0318397,14.8385929 48.0079006,14.3842934 C47.9755283,13.7809183 47.431729,13.5899492 45.5076208,13.3633436 C43.7965166,13.1617652 41.2097295,12.8570852 41.1477053,10.1511466 C41.1278467,9.31599708 41.4219173,8.57333975 41.9983608,8.00424114 C42.7687658,7.24281334 44.0274748,6.83448782 45.4534857,6.88427034 C47.6327634,6.96016829 49.5081772,7.53797202 49.5865235,7.5621832 L48.9404388,9.63863133 C48.9233006,9.63346267 47.2551779,9.12257975 45.3778598,9.05729117 C44.5848759,9.02981558 43.8577246,9.22323292 43.5272012,9.55049183 C43.3789418,9.69630292 43.3163737,9.86605317 43.3209982,10.101092 C43.3359602,10.734391 43.6577784,10.9561001 45.7614301,11.2039245 Z M119.602788,6.86900914 C124.498887,6.86900914 124.498887,11.8521583 124.498887,11.8521583 L124.498887,13.1854051 L116.719755,13.1854051 C116.719755,14.4520031 117.82558,15.8143577 119.875912,15.8143577 C121.588921,15.8143577 123.365314,15.1220269 123.365314,15.1220269 L123.931964,16.9038604 C123.931964,16.9038604 121.74915,17.7770949 119.693377,17.7770949 C114.795647,17.7770949 114.430575,13.4223481 114.430575,12.2441617 C114.430575,11.0651592 115.257291,6.86900914 119.602788,6.86900914 Z M122.384897,11.3069988 C122.384897,11.3069988 122.484734,8.84534817 119.603061,8.84534817 C116.996959,8.84534817 116.693367,11.3069988 116.693367,11.3069988 L122.384897,11.3069988 Z M89.8494058,6.86900914 C94.7457758,6.86900914 94.7457758,11.8521583 94.7457758,11.8521583 L94.7457758,13.1854051 L86.9666442,13.1854051 C86.9666442,14.4520031 88.0727408,15.8143577 90.1230733,15.8143577 C91.83581,15.8143577 93.6122025,15.1220269 93.6122025,15.1220269 L94.1788533,16.9038604 C94.1788533,16.9038604 91.9960392,17.7770949 89.9402658,17.7770949 C85.0425358,17.7770949 84.6774642,13.4223481 84.6774642,12.2441617 C84.6774642,11.0651592 85.50418,6.86900914 89.8494058,6.86900914 Z M92.6317867,11.3069988 C92.6317867,11.3069988 92.7316233,8.84534817 89.84995,8.84534817 C87.2438483,8.84534817 86.9402567,11.3069988 86.9402567,11.3069988 L92.6317867,11.3069988 Z M56.9871447,6.86900914 C61.8835145,6.86900914 61.8835145,11.8521583 61.8835145,11.8521583 L61.8835145,13.1854051 L54.1041108,13.1854051 C54.1041108,14.4520031 55.2102078,15.8143577 57.2605405,15.8143577 C58.973277,15.8143577 60.7496698,15.1220269 60.7496698,15.1220269 L61.3163202,16.9038604 C61.3163202,16.9038604 59.133506,17.7770949 57.0780046,17.7770949 C52.1802747,17.7770949 51.8146587,13.4223481 51.8146587,12.2441617 C51.8146587,11.0651592 52.6419192,6.86900914 56.9871447,6.86900914 Z M59.7695254,11.3069988 C59.7695254,11.3069988 59.8693625,8.84534817 56.9876887,8.84534817 C54.3815872,8.84534817 54.0779954,11.3069988 54.0779954,11.3069988 L59.7695254,11.3069988 Z M66.3082288,9.06934233 C66.3533867,8.89387933 66.8212881,7.05818274 68.6384862,7.05818274 L71.7562869,7.05818274 L71.7562869,9.30193283 L68.3017062,9.30193283 C67.4483302,9.30193283 66.446423,10.0179307 66.446423,11.1890442 C66.446423,11.1890442 66.4363577,17.3427628 66.4363577,17.5157774 L64.1515302,17.5157774 L64.1515302,7.12591962 C64.8580067,7.12591962 65.5038194,7.12319926 66.2644311,7.12319926 L66.3082288,9.06934233 Z" id="logotype" fill="#FFFFFF"></path>
            </g>
        </g>
    </g>
</svg>