<?xml version="1.0" encoding="UTF-8"?>
<svg width="158px" height="30px" viewBox="0 0 158 30" version="1.1" xmlns="http://www.w3.org/2000/svg" xmlns:xlink="http://www.w3.org/1999/xlink">
    <title>腾讯蓝</title>
    <g id="腾讯蓝" stroke="none" stroke-width="1" fill="none" fill-rule="evenodd">
        <path d="M5.80634225,21.4339623 C7.06017066,21.4339623 7.97204587,21.3773585 8.63695488,20.9622642 C9.33985868,20.5283019 9.71980669,19.6792453 9.92877809,18.5660377 L10.2707313,16.6792453 C10.3467209,16.2830189 10.5176975,15.1698113 10.5176975,14.6415094 C10.5176975,13.2264151 9.49183788,13 7.87705887,13 L5.44539164,13 C4.91346444,13 4.64750084,12.9056604 4.64750084,12.5849057 C4.64750084,12.4150943 4.70449304,12.0377358 4.79948004,11.5471698 L5.02744884,10.3773585 C5.21742284,9.41509434 5.36940204,9.22641509 6.24328245,9.22641509 L10.8596507,9.22641509 L11.7335311,7.1509434 L6.11030065,7.1509434 C3.73562563,7.1509434 2.99472702,7.67924528 2.59578162,9.94339623 L2.23483101,11.9433962 C2.13984401,12.490566 2.06385441,12.9811321 2.06385441,13.3962264 C2.06385441,14.5849057 2.57678422,15.1698113 4.11557363,15.1698113 L6.94618626,15.1698113 C7.63009267,15.1698113 7.89605627,15.2075472 7.89605627,15.6226415 C7.89605627,15.8301887 7.85806147,16.245283 7.72507967,16.9056604 L7.53510566,17.8867925 C7.29842972,19.1525157 7.11409557,19.3265527 5.99560577,19.3388583 L1,19.3396226 L1.379948,21.4339623 L5.80634225,21.4339623 Z M18.990538,21.4339623 L19.7694314,19.5283019 L15.9509539,19.5283019 C14.8491047,19.5283019 14.5071515,19.3773585 14.5071515,18.7169811 C14.5071515,18.509434 14.5451463,18.2075472 14.6021385,17.8867925 L14.6971255,17.3018868 L18.8765536,17.3018868 C20.4533378,17.3018868 21.080252,16.7169811 21.3842104,15.0377358 L21.650174,13.5471698 C21.7071662,13.245283 21.7261636,12.9433962 21.7261636,12.7169811 C21.7261636,11.1320755 20.6623092,10.6037736 18.6675822,10.6037736 L17.375759,10.6037736 C15.7419825,10.6037736 14.7921125,10.7924528 14.1272035,11.3584906 C13.4053023,11.9622642 13.1773335,12.9056604 13.0253543,13.7358491 L12.2844557,17.9622642 C12.2084661,18.4150943 12.1514739,18.8867925 12.1514739,19.2830189 C12.1514739,20.8113208 13.0253543,21.4339623 15.4950163,21.4339623 L18.990538,21.4339623 Z M18.2686368,15.4716981 L15.0390787,15.4716981 L15.3430371,13.7358491 C15.5520085,12.6037736 15.9699513,12.490566 16.8438318,12.490566 L18.1926472,12.490566 C19.0665276,12.490566 19.3514886,12.6037736 19.3514886,13.0943396 C19.3514886,13.2264151 19.3324912,13.3773585 19.2944964,13.5471698 L19.085525,14.7735849 C19.0095354,15.2641509 18.800564,15.4716981 18.2686368,15.4716981 Z M24.689758,21.4339623 L25.9625838,14.3207547 C26.20955,12.9056604 26.4945111,12.6792453 27.8623239,12.6792453 L29.5910873,12.6792453 L30.4079755,10.7358491 L27.7863343,10.7358491 C24.8037424,10.7358491 24.119836,11.2641509 23.6069062,14.1886792 L22.315083,21.4339623 L24.689758,21.4339623 Z M35.2143177,21.4339623 L41.0275222,10.7358491 L38.6718446,10.7358491 L34.3594347,18.9056604 L33.4285621,10.7358491 L31.0728845,10.7358491 L32.3647077,21.4339623 L35.2143177,21.4339623 Z M47.4486435,21.4339623 L48.2275369,19.5283019 L44.4090594,19.5283019 C43.3072102,19.5283019 42.965257,19.3773585 42.965257,18.7169811 C42.965257,18.509434 43.0032518,18.2075472 43.060244,17.8867925 L43.155231,17.3018868 L47.3346591,17.3018868 C48.9114433,17.3018868 49.5383575,16.7169811 49.8423159,15.0377358 L50.1082795,13.5471698 C50.1652717,13.245283 50.1842691,12.9433962 50.1842691,12.7169811 C50.1842691,11.1320755 49.1204147,10.6037736 47.1256877,10.6037736 L45.8338644,10.6037736 C44.200088,10.6037736 43.250218,10.7924528 42.585309,11.3584906 C41.8634078,11.9622642 41.635439,12.9056604 41.4834598,13.7358491 L40.7425612,17.9622642 C40.6665716,18.4150943 40.6095794,18.8867925 40.6095794,19.2830189 C40.6095794,20.8113208 41.4834598,21.4339623 43.9531218,21.4339623 L47.4486435,21.4339623 Z M46.7267423,15.4716981 L43.4971842,15.4716981 L43.8011426,13.7358491 C44.010114,12.6037736 44.4280568,12.490566 45.3019372,12.490566 L46.6507527,12.490566 C47.5246331,12.490566 47.8095941,12.6037736 47.8095941,13.0943396 C47.8095941,13.2264151 47.7905967,13.3773585 47.7526019,13.5471698 L47.5436305,14.7735849 C47.4676409,15.2641509 47.2586695,15.4716981 46.7267423,15.4716981 Z M53.1478635,21.4339623 L54.4206893,14.3207547 C54.6676555,12.9056604 54.9526165,12.6792453 56.3204293,12.6792453 L58.0491928,12.6792453 L58.866081,10.7358491 L56.2444397,10.7358491 C53.2618479,10.7358491 52.5779415,11.2641509 52.0650117,14.1886792 L50.7731885,21.4339623 L53.1478635,21.4339623 Z M63.5584388,21.4339623 L64.375327,19.5283019 L63.2734778,19.5283019 C62.0386468,19.5283019 61.5637118,19.509434 61.5637118,18.7735849 C61.5637118,18.3773585 61.6776962,17.754717 61.8296754,16.9433962 L63.710418,6.37735849 L61.3547404,6.37735849 L59.4739978,16.9433962 C59.3030212,17.9056604 59.1700394,18.6981132 59.1700394,19.3396226 C59.1700394,20.9433962 60.100912,21.4339623 62.2096234,21.4339623 L63.5584388,21.4339623 Z M72.5632065,21.4339623 L73.3420999,19.5283019 L69.5236225,19.5283019 C68.4217733,19.5283019 68.0798201,19.3773585 68.0798201,18.7169811 C68.0798201,18.509434 68.1178149,18.2075472 68.1748071,17.8867925 L68.2697941,17.3018868 L72.4492221,17.3018868 C74.0260063,17.3018868 74.6529205,16.7169811 74.9568789,15.0377358 L75.2228425,13.5471698 C75.2798347,13.245283 75.2988321,12.9433962 75.2988321,12.7169811 C75.2988321,11.1320755 74.2349777,10.6037736 72.2402507,10.6037736 L70.9484275,10.6037736 C69.3146511,10.6037736 68.3647811,10.7924528 67.6998721,11.3584906 C66.9779709,11.9622642 66.750002,12.9056604 66.5980228,13.7358491 L65.8571242,17.9622642 C65.7811346,18.4150943 65.7241424,18.8867925 65.7241424,19.2830189 C65.7241424,20.8113208 66.5980228,21.4339623 69.0676849,21.4339623 L72.5632065,21.4339623 Z M71.8413053,15.4716981 L68.6117473,15.4716981 L68.9157057,13.7358491 C69.1246771,12.6037736 69.5426199,12.490566 70.4165003,12.490566 L71.7653157,12.490566 C72.6391961,12.490566 72.9241571,12.6037736 72.9241571,13.0943396 C72.9241571,13.2264151 72.9051597,13.3773585 72.8671649,13.5471698 L72.6581935,14.7735849 C72.5822039,15.2641509 72.3732325,15.4716981 71.8413053,15.4716981 Z M83.885657,19.1509434 L84.075631,18.0188679 C84.2086128,17.2641509 84.265605,16.7924528 84.265605,16.490566 C84.265605,15.2641509 83.5437038,15.0566038 81.9099274,15.0566038 L79.7252264,15.0566038 C79.3832732,15.0566038 79.231294,15.0188679 79.231294,14.7735849 C79.231294,14.6226415 79.2882862,14.2264151 79.3452784,13.8867925 L79.4402654,13.3207547 C79.516255,12.8301887 79.706229,12.6415094 80.3141458,12.6415094 L84.4175842,12.6415094 L85.215475,10.7358491 L79.9152004,10.7358491 C78.566385,10.7358491 77.6545098,11.0566038 77.3695488,12.7735849 L77.1035852,14.4150943 C77.0275956,14.8679245 76.951606,15.4150943 76.951606,15.7169811 C76.951606,16.7924528 77.6545098,16.9622642 79.0793148,16.9622642 L81.3780002,16.9622642 C81.8149404,16.9622642 81.9479222,17.0377358 81.9479222,17.2075472 C81.9479222,17.3584906 81.8339378,17.8301887 81.7769456,18.2830189 L81.7389508,18.5471698 C81.605969,19.4339623 81.4349924,19.5283019 80.7130912,19.5283019 L76.2107073,19.5283019 L76.5526605,21.4339623 L80.7130912,21.4339623 C82.9547844,21.4339623 83.5437038,21.1698113 83.885657,19.1509434 Z M93.8592921,19.1509434 L94.0492661,18.0188679 C94.1822479,17.2641509 94.2392401,16.7924528 94.2392401,16.490566 C94.2392401,15.2641509 93.5173389,15.0566038 91.8835625,15.0566038 L89.6988615,15.0566038 C89.3569083,15.0566038 89.2049291,15.0188679 89.2049291,14.7735849 C89.2049291,14.6226415 89.2619213,14.2264151 89.3189135,13.8867925 L89.4139005,13.3207547 C89.4898901,12.8301887 89.6798641,12.6415094 90.2877809,12.6415094 L94.3912193,12.6415094 L95.1891101,10.7358491 L89.8888355,10.7358491 C88.5400201,10.7358491 87.6281449,11.0566038 87.3431839,12.7735849 L87.0772203,14.4150943 C87.0012307,14.8679245 86.925241,15.4150943 86.925241,15.7169811 C86.925241,16.7924528 87.6281449,16.9622642 89.0529499,16.9622642 L91.3516353,16.9622642 C91.7885755,16.9622642 91.9215573,17.0377358 91.9215573,17.2075472 C91.9215573,17.3584906 91.8075729,17.8301887 91.7505807,18.2830189 L91.7125859,18.5471698 C91.5796041,19.4339623 91.4086275,19.5283019 90.6867263,19.5283019 L86.1843424,19.5283019 L86.5262956,21.4339623 L90.6867263,21.4339623 C92.9284195,21.4339623 93.5173389,21.1698113 93.8592921,19.1509434 Z M109.988085,23 L110.766978,17.4150943 L117.1881,17.4150943 L118.099975,10.9056604 C118.251954,9.75471698 118.118972,9.41509434 116.941133,9.41509434 L111.868827,9.41509434 L112.343763,6.01886792 L110.178059,6.01886792 L109.703124,9.41509434 L103.509971,9.41509434 L102.389125,17.4150943 L108.56328,17.4150943 L107.765389,23 L109.988085,23 Z M108.810246,15.6981132 L104.801795,15.6981132 L105.466704,11.1320755 L109.456158,11.1320755 L108.810246,15.6981132 Z M115.250365,15.6981132 L110.994947,15.6981132 L111.640859,11.1320755 L115.64931,11.1320755 C115.858282,11.1320755 115.877279,11.2264151 115.858282,11.4150943 L115.250365,15.6981132 Z M123.704208,22.9811321 C125.451969,21.6981132 127.294716,20.245283 129.061475,18.5660377 C130.258311,20.1132075 131.493142,21.5283019 132.784965,22.9811321 L135.938534,22.9811321 C133.962804,21.0566038 132.120056,19.1132075 130.543272,17.0943396 C132.348025,15.1698113 134.038794,12.9811321 135.444601,10.3962264 L137.857271,10.3962264 L138.066242,8.73584906 L131.265173,8.73584906 C130.980212,7.79245283 130.733246,6.71698113 130.600264,6 L128.339573,6 C128.472555,6.79245283 128.738519,7.86792453 128.985485,8.73584906 L121.975444,8.73584906 L121.728478,10.3962264 L124.122151,10.3962264 C125.261995,12.9245283 126.496826,15.0188679 127.826644,16.8867925 C125.717932,18.8867925 123.115288,20.9056604 120.018712,22.9811321 L123.704208,22.9811321 Z M129.289443,15.3962264 C128.168597,13.7735849 127.218727,12.1132075 126.515823,10.3962264 L132.917947,10.3962264 C132.044066,12.0943396 130.84723,13.7358491 129.289443,15.3962264 Z M141.181816,22.9811321 L141.675748,19.5660377 L143.594486,19.5660377 C144.031426,18.7735849 144.715332,17.4339623 145.304252,16.245283 C145.513223,17.3207547 145.779187,18.6415094 145.988158,19.5660377 L148.818771,19.5660377 C149.331701,18.6603774 149.977612,17.3584906 150.528537,16.1886792 C150.775503,17.2830189 151.117456,18.6603774 151.364422,19.5660377 L153.112183,19.5660377 L152.865217,21.3207547 L149.217716,21.3207547 L149.749643,22.9811321 L154.859944,22.9811321 L156.968656,7.50943396 C157.08264,6.69811321 156.930661,6.33962264 155.752822,6.33962264 L141.409785,6.33962264 L138.95912,22.9811321 L141.181816,22.9811321 Z M153.150178,19.2830189 C152.656246,17.754717 152.086324,15.754717 151.782365,14.2830189 C152.827222,12.4716981 153.663108,10.8490566 154.290022,9.43396226 L152.295295,9.43396226 C151.991337,10.2641509 151.478407,11.5849057 151.041467,12.5283019 C150.737508,11.5283019 150.452547,10.1509434 150.319565,9.39622642 L147.222989,9.39622642 C146.862039,10.3396226 146.368106,11.5660377 145.893171,12.5283019 C145.665202,11.4716981 145.475228,10.3018868 145.361244,9.39622642 L143.499499,9.39622642 C143.803457,10.8867925 144.2214,12.6981132 144.620345,14.3018868 C143.822455,15.8679245 142.682611,17.7735849 141.732741,19.1886792 L143.328522,8 L154.442001,8 C154.66997,8 154.726962,8.0754717 154.688968,8.32075472 L153.150178,19.2830189 Z M147.488953,18.5283019 C147.128002,17.1320755 146.748054,15.5471698 146.55808,14.4150943 C147.336974,12.9811321 148.077872,11.5660377 148.704786,10.2830189 C149.04674,11.5849057 149.445685,12.9811321 149.825633,14.2641509 C149.122729,15.7735849 148.286844,17.245283 147.488953,18.5283019 Z" id="Serverless中文网" fill="#0052D9" fill-rule="nonzero"></path>
    </g>
</svg>