<?xml version="1.0" encoding="UTF-8"?>
<svg width="16px" height="16px" viewBox="0 0 16 16" version="1.1" xmlns="http://www.w3.org/2000/svg" xmlns:xlink="http://www.w3.org/1999/xlink">
    <title>mac-2</title>
    <g id="设计稿" stroke="none" stroke-width="1" fill="none" fill-rule="evenodd">
        <g id="mac-2">
            <rect id="矩形备份-13" x="0" y="0" width="16" height="16"></rect>
            <path d="M14.4238538,11.6756223 C14.4040234,11.7357961 14.0942041,12.8164878 13.3329447,13.9277344 C12.6740743,14.886304 11.9927801,15.8526342 10.9167487,15.8695983 C9.85857833,15.8882003 9.51995914,15.2382215 8.31180267,15.2382215 C7.1051866,15.2382215 6.72585354,15.8526342 5.72580962,15.8882003 C4.69199348,15.9305131 3.89647429,14.8411053 3.23510808,13.8872155 C1.88345865,11.9331452 0.842720368,8.34985763 2.23851547,5.94846138 C2.92526936,4.74695404 4.15965196,3.9832182 5.5038528,3.96235431 C6.51682454,3.94320631 7.48060036,4.64856224 8.09585152,4.64856224 C8.7279303,4.64856224 9.89381299,3.7950726 11.1237888,3.9227714 C11.6387763,3.94470774 13.0792435,4.13805959 14.0073362,5.48319636 C13.9343126,5.53287975 12.2837828,6.50691205 12.3021704,8.48931431 C12.3269731,10.8825405 14.4015275,11.6674522 14.4238538,11.6756223 M10.3189101,2.64081128 C10.8735585,1.96423587 11.2380333,1.03421275 11.1421373,0.110604806 C10.350206,0.141666677 9.3853382,0.636531159 8.81189285,1.30908979 C8.30486101,1.89587243 7.857964,2.84038327 7.98260145,3.75326679 C8.86251219,3.80671348 9.76724514,3.29248651 10.3189101,2.64081128" id="形状" fill="#A0B7BF" fill-rule="nonzero"></path>
        </g>
    </g>
</svg>