<?xml version="1.0" encoding="UTF-8"?>
<svg width="48px" height="48px" viewBox="0 0 48 48" version="1.1" xmlns="http://www.w3.org/2000/svg" xmlns:xlink="http://www.w3.org/1999/xlink">
    <!-- Generator: Sketch 63.1 (92452) - https://sketch.com -->
    <title>菜单-48px</title>
    <desc>Created with Sketch.</desc>
    <g id="菜单-48px" stroke="none" stroke-width="1" fill="none" fill-rule="evenodd">
        <g id="菜单备份">
            <rect id="Rectangle" x="0" y="0" width="48" height="48"></rect>
            <path d="M8,36 L8,40 L4,40 L4,36 L8,36 Z M44,36 L44,40 L12,40 L12,36 L44,36 Z M8,22 L8,26 L4,26 L4,22 L8,22 Z M44,22 L44,26 L12,26 L12,22 L44,22 Z M8,8 L8,12 L4,12 L4,8 L8,8 Z M44,8 L44,12 L12,12 L12,8 L44,8 Z" id="形状结合" fill="#000000"></path>
        </g>
    </g>
</svg>
