<?xml version="1.0" encoding="UTF-8"?>
<svg width="24px" height="24px" viewBox="0 0 24 24" version="1.1" xmlns="http://www.w3.org/2000/svg" xmlns:xlink="http://www.w3.org/1999/xlink">
    <!-- Generator: Sketch 59.1 (86144) - https://sketch.com -->
    <title>画板</title>
    <desc>Created with Sketch.</desc>
    <g id="画板" stroke="none" stroke-width="1" fill="none" fill-rule="evenodd">
        <path d="M20.4135409,14.5293844 C20.0093468,13.2444475 19.5445237,12.1645006 18.8296054,10.3970874 C18.9407588,5.75481552 16.9905224,2 12.4989159,2 C7.9567852,2 6.04949449,5.82981182 6.1707527,10.3970874 C5.45330824,12.1670005 4.99101127,13.2394478 4.58681722,14.5293844 C3.72790484,17.2667499 4.00578826,18.3991943 4.21799015,18.424193 C4.67270847,18.4791903 5.98886538,16.3642942 5.98886538,16.3642942 C5.98886538,17.589234 6.62547102,19.1866555 8.00478326,20.3390989 C7.33786305,20.541589 5.83981882,21.0865622 6.19601482,21.6840329 C6.48400308,22.1665092 11.1524445,21.9915177 12.4989159,21.8415251 C13.8453874,21.9915177 18.5138288,22.1665092 18.8018171,21.6840329 C19.1580131,21.0890621 17.6574427,20.541589 16.9930487,20.3390989 C18.3723609,19.1841557 19.0089665,17.5867342 19.0089665,16.3642942 C19.0089665,16.3642942 20.3251234,18.4791903 20.7798418,18.424193 C20.9945699,18.3966944 21.2724533,17.26425 20.4135409,14.5293844 Z" id="Path" fill="#8C8C8C" fill-rule="nonzero"></path>
    </g>
</svg>