<?xml version="1.0" encoding="UTF-8"?>
<svg width="48px" height="48px" viewBox="0 0 48 48" version="1.1" xmlns="http://www.w3.org/2000/svg" xmlns:xlink="http://www.w3.org/1999/xlink">
    <!-- Generator: Sketch 63.1 (92452) - https://sketch.com -->
    <title>搜索-48px-白</title>
    <desc>Created with Sketch.</desc>
    <g id="搜索-48px-白" stroke="none" stroke-width="1" fill="none" fill-rule="evenodd">
        <g id="搜素备份">
            <rect id="Rectangle" x="0" y="0" width="48" height="48"></rect>
            <path d="M20.5,5 C29.0604136,5 36,11.9395864 36,20.5 C36,24.0593869 34.8002397,27.3385548 32.7830608,29.955162 L42.6568542,39.8284271 L39.8284271,42.6568542 L29.955162,32.7830608 C27.3385548,34.8002397 24.0593869,36 20.5,36 C11.9395864,36 5,29.0604136 5,20.5 C5,11.9395864 11.9395864,5 20.5,5 Z M20.5,9 C14.1487254,9 9,14.1487254 9,20.5 C9,26.8512746 14.1487254,32 20.5,32 C26.8512746,32 32,26.8512746 32,20.5 C32,14.1487254 26.8512746,9 20.5,9 Z" id="形状结合" fill="#333333" fill-rule="nonzero"></path>
        </g>
    </g>
</svg>
