<svg xmlns="http://www.w3.org/2000/svg" width="16" height="13" viewBox="0 0 16 13">
    <path fill="#8C8C8C" fill-rule="evenodd" d="M16 1.539a6.539 6.539 0 0 1-1.885.516A3.288 3.288 0 0 0 15.56.24a6.564 6.564 0 0 1-2.086.796A3.282 3.282 0 0 0 7.88 4.029 9.317 9.317 0 0 1 1.114.6 3.277 3.277 0 0 0 .67 2.251a3.28 3.28 0 0 0 1.46 2.731 3.285 3.285 0 0 1-1.488-.41v.041a3.283 3.283 0 0 0 2.635 3.218 3.268 3.268 0 0 1-1.483.057 3.283 3.283 0 0 0 3.066 2.278 6.585 6.585 0 0 1-4.077 1.406c-.265 0-.527-.015-.783-.045A9.308 9.308 0 0 0 5.032 13c6.038 0 9.34-5 9.34-9.337 0-.143-.003-.286-.009-.425A6.64 6.64 0 0 0 16 1.539"/>
</svg>
