<?xml version="1.0" encoding="UTF-8"?>
<svg width="24px" height="24px" viewBox="0 0 24 24" version="1.1" xmlns="http://www.w3.org/2000/svg" xmlns:xlink="http://www.w3.org/1999/xlink">
    <!-- Generator: Sketch 59.1 (86144) - https://sketch.com -->
    <title>画板</title>
    <desc>Created with Sketch.</desc>
    <g id="画板" stroke="none" stroke-width="1" fill="none" fill-rule="evenodd">
        <path d="M23,6.0193879 C22.227737,6.35134035 21.3873333,6.59024553 20.5216921,6.68329283 C21.4204258,6.15125286 22.09345,5.31071854 22.4144935,4.31938894 C21.5711448,4.81930217 20.6472568,5.16985016 19.6838121,5.35548299 C18.8698311,4.48837288 17.7307898,3.9973877 16.5392381,4 C14.1543084,4 12.2362697,5.92634063 12.2362697,8.29024449 C12.2362697,8.62219695 12.2766494,8.95414942 12.3422666,9.27352793 C8.77118134,9.08743336 5.58622762,7.38743441 3.46881385,4.78462536 C3.0829985,5.44127619 2.8808181,6.18895042 2.8833073,6.94986072 C2.8833073,8.4386172 3.64295157,9.75133829 4.801346,10.5233792 C4.11868683,10.4965895 3.45201242,10.3096171 2.85554621,9.97766951 L2.85554621,10.0304801 C2.85554621,12.1152422 4.334455,13.8429038 6.30549212,14.2402408 C5.93540825,14.3360302 5.55469865,14.3850345 5.17233506,14.3860987 C4.89220047,14.3860987 4.62720828,14.358436 4.35969235,14.3207142 C4.90481913,16.0207131 6.49224852,17.2554757 8.38252613,17.2957123 C6.90361734,18.4500016 5.05119576,19.1289952 3.03977887,19.1289952 C2.67888475,19.1289952 2.34575172,19.1164213 2,19.0761846 C3.90794376,20.2958584 6.17173418,21 8.60966231,21 C16.5240957,21 20.8548251,14.4665721 20.8548251,8.79571756 C20.8548251,8.609623 20.8548251,8.42352844 20.8422065,8.23743387 C21.6800865,7.62633957 22.4144935,6.86938737 23,6.0193879 Z" id="Path" fill="#8C8C8C" fill-rule="nonzero"></path>
    </g>
</svg>