<?xml version="1.0" encoding="UTF-8"?>
<svg width="18px" height="18px" viewBox="0 0 18 18" version="1.1" xmlns="http://www.w3.org/2000/svg" xmlns:xlink="http://www.w3.org/1999/xlink">
    <!-- Generator: Sketch 59.1 (86144) - https://sketch.com -->
    <title>画板</title>
    <desc>Created with Sketch.</desc>
    <g id="画板" stroke="none" stroke-width="1" fill="none" fill-rule="evenodd">
        <path d="M9.56252252,3 C9.56828935,3.04109884 9.59905945,3.03943325 9.62859381,3.03905847 C9.84159549,3.03641432 10.05124,3.07080911 10.2615848,3.09720897 C10.7191203,3.1546516 11.1673877,3.25669083 11.6078081,3.39264601 C12.2645461,3.59535038 12.8885367,3.87492252 13.4808304,4.22590755 C14.1563518,4.62623619 14.7721453,5.10693035 15.3374586,5.65329108 C15.6522034,5.95743091 15.9437163,6.28374414 16.2229952,6.62202891 C16.5453399,7.01244719 16.8440201,7.42031269 17.115349,7.84743678 C17.4239151,8.3332527 17.7082812,8.83385087 17.9384804,9.36384702 C17.9509202,9.39245382 17.9587054,9.42830601 18,9.43134575 L18,9.56859175 L18,9.56859175 C17.9782302,9.57067377 17.9688386,9.58406109 17.9591997,9.60365279 C17.8657566,9.79317803 17.7821789,9.9872629 17.6835869,10.1746645 C17.5139599,10.4971677 17.3337468,10.8127377 17.1378396,11.1195009 C16.7600716,11.7109996 16.344325,12.2723924 15.8721253,12.7914372 C15.5464441,13.1494802 15.2079934,13.4939277 14.8402762,13.8067703 C14.4684604,14.1230899 14.077058,14.4134052 13.6618468,14.6713037 C13.1297134,15.0018434 12.5724531,15.2773972 11.9840932,15.4877009 C11.274424,15.7413104 10.5456832,15.9075796 9.79340133,15.9606708 C9.76553521,15.9626279 9.74147932,15.9657718 9.73705124,16 L8.26292813,16 L8.26292813,16 C8.25845885,15.9658342 8.23458833,15.9611081 8.20653687,15.9608374 C8.03565358,15.9592759 7.86835398,15.9256931 7.69975685,15.9032074 C7.19754911,15.8363333 6.70747227,15.7150979 6.22658115,15.5575107 C5.68198727,15.3790409 5.16309691,15.1398597 4.66325768,14.8577267 C3.9018931,14.4279377 3.22373551,13.8867611 2.59570807,13.2792102 C2.36052475,13.0516883 2.14799678,12.8023053 1.93307971,12.5551292 C1.60737789,12.1805342 1.31139577,11.7832869 1.03588588,11.3706953 C0.663678752,10.8133207 0.332560244,10.2317948 0.0615402234,9.6164988 C0.0489767868,9.58795446 0.0412533619,9.55208146 0,9.54904172 L0,9.47059163 L0,9.47059163 C0.028278012,9.46934243 0.0338594716,9.4478561 0.0435806942,9.42607827 C0.0938962094,9.31335832 0.144335303,9.20059673 0.198399257,9.0896673 C0.488140845,8.49498315 0.828074349,7.93040485 1.20508029,7.38862453 C1.5127608,6.94648917 1.84556818,6.52327924 2.21264697,6.13086224 C2.56250765,5.75687102 2.92890678,5.39959831 3.32593182,5.07374314 C3.85122746,4.64255914 4.41336896,4.27152436 5.01303598,3.95799467 C5.5330797,3.68612598 6.07993913,3.48054842 6.64327518,3.32173281 C6.94362359,3.23705753 7.24918274,3.16980864 7.55721339,3.12238048 C7.82022163,3.08190623 8.08436264,3.03978718 8.35204614,3.03910012 C8.38151871,3.03901685 8.41233001,3.04109884 8.41811743,3 L9.56252252,3 L9.56252252,3 Z M9.04569175,5.61296261 C6.8423129,5.5911848 5.24280262,7.35510421 5.15955445,9.3269955 C5.06195098,11.6389204 6.92150371,13.4063168 8.98654063,13.3922216 C11.1239924,13.4087111 12.8456975,11.6649663 12.8556712,9.54244175 C12.8659637,7.32760089 11.1535679,5.63382432 9.04569175,5.61296261 Z M8.98954762,7.55355318 C10.0995989,7.55050072 10.9359322,8.41622076 10.9356233,9.51506333 C10.9353555,10.5982284 10.0626913,11.4622828 8.99366678,11.4509983 C7.96719317,11.4661762 7.02921968,10.5678519 7.0786084,9.42347577 C7.12225089,8.41261889 7.92396262,7.55649692 8.98954762,7.55355318 Z" id="Shape" fill="#8C8C8C" fill-rule="nonzero"></path>
    </g>
</svg>