<?xml version="1.0" encoding="UTF-8"?>
<svg width="24px" height="24px" viewBox="0 0 24 24" version="1.1" xmlns="http://www.w3.org/2000/svg" xmlns:xlink="http://www.w3.org/1999/xlink">
    <!-- Generator: Sketch 59.1 (86144) - https://sketch.com -->
    <title>画板</title>
    <desc>Created with Sketch.</desc>
    <g id="画板" stroke="none" stroke-width="1" fill="none" fill-rule="evenodd">
        <path d="M16.374707,8.64148935 C16.5195892,8.64148935 16.6644715,8.64646859 16.8068981,8.65393746 C16.2077241,5.44979061 12.9196339,3 8.95133386,3 C4.56066526,3 1,6.00248726 1,9.70704867 C1,11.7261342 2.0706552,13.5460498 3.74785132,14.7759244 C3.88823684,14.8764074 3.97160225,15.0398735 3.97131376,15.2140983 C3.97131376,15.2738493 3.95903559,15.328621 3.94430181,15.3858824 C3.8092421,15.8912762 3.59560219,16.7004042 3.58577966,16.7377485 C3.56859024,16.8024788 3.54403393,16.867209 3.54403393,16.9344289 C3.54403393,17.0813167 3.66190422,17.2033083 3.8092421,17.2033083 C3.86572161,17.2033083 3.91237861,17.1809017 3.96149123,17.1535159 L5.70253377,16.1352594 C5.83268223,16.058081 5.97265321,16.0107782 6.12490234,16.0107782 C6.20348254,16.0107782 6.28206274,16.0232263 6.35818731,16.0456329 C7.17100123,16.2821472 8.04766157,16.4140974 8.9537895,16.4140974 C9.10112737,16.4140974 9.24600961,16.4116077 9.39089185,16.4041389 C9.21654203,15.8813177 9.12322804,15.3311106 9.12322804,14.7609866 C9.12322804,11.3800764 12.3695725,8.64148933 16.374707,8.64148935 Z M11.6034156,6.48796407 C12.1878558,6.48796407 12.6642482,6.96846162 12.6642482,7.56099228 C12.6642482,8.15352293 12.1903114,8.63402046 11.6034156,8.63402046 C11.0189753,8.63402046 10.5425829,8.15352291 10.5425829,7.56099228 C10.5425829,6.96846164 11.0189754,6.48796407 11.6034156,6.48796407 L11.6034156,6.48796407 Z M6.30170778,8.63402046 C5.71726755,8.63402046 5.24087511,8.15352291 5.24087511,7.56099228 C5.24087511,6.96846164 5.71481193,6.48796407 6.30170778,6.48796407 C6.88860362,6.48796407 7.36254047,6.96846162 7.36254047,7.56099228 C7.36254047,8.15352293 6.88614801,8.63402046 6.30170778,8.63402046 Z M20.7113517,18.9809003 C22.1086059,17.955175 23,16.4414832 23,14.7560074 C23,11.6688729 20.0335975,9.16680013 16.3722514,9.16680013 C12.7133609,9.16680013 9.74450275,11.6688729 9.74450275,14.7560074 C9.74450275,17.8431419 12.7109052,20.3452146 16.3722514,20.3452146 C17.1285858,20.3452146 17.8603639,20.2356711 18.5356625,20.0389908 C18.5995089,20.0190738 18.6633553,20.0091153 18.7296573,20.0091153 C18.8573501,20.0091153 18.9727648,20.0489493 19.0808126,20.1111899 L20.5320906,20.9576622 C20.5738364,20.9825585 20.6131265,20.999993 20.6597835,20.999993 C20.7185774,21.0004627 20.7751354,20.9771679 20.8169439,20.9352556 C20.8582839,20.8928684 20.8812606,20.8355275 20.8807903,20.7759196 C20.8807903,20.7211479 20.8586896,20.6663762 20.8464114,20.6116044 C20.8390445,20.5817289 20.6597835,19.9070407 20.5468244,19.4838045 C20.5345463,19.4365016 20.5247238,19.3891987 20.5247237,19.3418959 C20.5271794,19.195008 20.6008483,19.0630579 20.7113517,18.9809003 Z M14.1670945,13.8647218 C13.6784239,13.8647218 13.2830673,13.4638922 13.2830673,12.9709465 C13.2830673,12.4780009 13.6784239,12.0771713 14.1670945,12.0771713 C14.6557652,12.0771713 15.0511218,12.4780008 15.0511218,12.9709465 C15.0511218,13.4638922 14.6533095,13.8647218 14.1670945,13.8647218 Z M18.5847751,13.8647218 C18.0961045,13.8647218 17.7007479,13.4638922 17.7007479,12.9709465 C17.7007479,12.4780009 18.0961045,12.0771713 18.5847751,12.0771713 C19.0734457,12.0771713 19.4688023,12.4780008 19.4688023,12.9709465 C19.4663747,13.464513 19.0716073,13.8636335 18.5847751,13.8647218 Z" id="Shape" fill="#8C8C8C" fill-rule="nonzero"></path>
    </g>
</svg>