<?xml version="1.0" encoding="UTF-8"?>
<svg width="24px" height="24px" viewBox="0 0 24 24" version="1.1" xmlns="http://www.w3.org/2000/svg" xmlns:xlink="http://www.w3.org/1999/xlink">
    <!-- Generator: Sketch 59.1 (86144) - https://sketch.com -->
    <title>画板</title>
    <desc>Created with Sketch.</desc>
    <g id="画板" stroke="none" stroke-width="1" fill="none" fill-rule="evenodd">
        <path d="M21.2,2 L2.79999999,2 C2.3575,2 2,2.3575 2,2.79999999 L2,21.2 C2,21.6425 2.3575,22 2.79999999,22 L21.2,22 C21.6425,22 22,21.6425 22,21.2 L22,2.79999999 C22,2.3575 21.6425,2 21.2,2 L21.2,2 Z M10.0075,14.02 L11.7825,16.0375 C12.0125,16.8625 11.7,17.615 11.7,17.615 L9.30750001,14.8175 L9.30750001,14.815 C9.085,15.54 8.805,16.2475 8.475,16.9325 C7.91000001,18.075 7.09500001,18.3 6.23750001,18.375 C5.3775,18.45 5.65500002,18.2425 5.65499999,18.2425 C7.355,16.855 7.60499999,16.0475 8.07500001,15.165 C8.37250001,14.6075 8.58500001,13.5575 8.70749999,12.745 L5.80249999,12.745 C5.80249999,12.745 5.92249999,11.965 6.28249999,11.7025 L8.8225,11.7025 C8.83749999,11.32 8.79,9.13250001 8.7725,8.41749999 L7.5375,8.41749999 C7.30749999,9.54249998 6.5125,9.83499999 6.33499999,9.92000001 C6.15999999,10.005 5.74499998,10.0975 5.8075,9.92000001 C5.87250001,9.7425 6.48250001,8.76500001 6.88749999,7.1525 C7.29499998,5.53750001 8.48499998,5.60249999 8.48500001,5.60249999 C8.16500001,6.165 7.925,7.4425 7.925,7.4425 L11.9175,7.4425 C12.17,7.4425 12.1825,8.41750001 12.1825,8.41749999 L9.91250001,8.41749999 C9.89500001,8.98499999 9.84250001,10.5125 9.7875,11.7025 L12.175,11.7025 C12.175,11.7025 12.48,12.0875 12.48,12.745 L9.72999999,12.745 L9.72750001,12.7825 C9.69,13.2925 9.57000001,13.88 9.40500001,14.4725 L10.0075,14.02 L10.0075,14.02 Z M18.395,16.92 L16.205,16.92 L14.4675,18.085 L14.0575,16.92 L13.055,16.92 L13.055,7.23749999 L18.395,7.23749999 L18.395,16.92 Z M14.805,16.8325 L16.225,15.88 L17.365,15.88 L17.3625,15.88 L17.3625,8.3175 L14.1175,8.3175 L14.1175,15.88 L14.47,15.88 L14.805,16.8325 Z" id="Shape" fill="#8C8C8C" fill-rule="nonzero"></path>
    </g>
</svg>